<?xml version="1.0" encoding="UTF-8"?>
<svg width="842px" height="314px" viewBox="0 0 842 314" version="1.1" xmlns="http://www.w3.org/2000/svg" xmlns:xlink="http://www.w3.org/1999/xlink">
    <!-- Generator: Sketch 61.2 (89653) - https://sketch.com -->
    <title>Artboard 4</title>
    <desc>Created with Sketch.</desc>
    <g id="Artboard-4" stroke="none" stroke-width="1" fill="none" fill-rule="evenodd">
        <text id="octoboard-copy" font-family="Montserrat-Bold, Montserrat" font-size="90" font-weight="bold" letter-spacing="2.457142" fill="#000000">
            <tspan x="311" y="155">octoboard</tspan>
        </text>
        <text id="100%-octopus-or-mone" font-family="Montserrat-Medium, Montserrat" font-size="32" font-weight="400" letter-spacing="1.20000005" fill="#6E6E6E">
            <tspan x="311" y="190">100% octopus or money bac</tspan>
            <tspan x="794.152001" y="190">k</tspan>
        </text>
        <g id="Octoboard-Logo" transform="translate(1.000000, 46.000000)">
            <g id="Group-2">
                <g id="tentacles" transform="translate(107.250000, 141.066987) rotate(60.000000) translate(-107.250000, -141.066987) translate(-5.750000, 83.566987)">
                    <g id="Tentacles-Copy" transform="translate(0.000000, 4.333549)">
                        <path d="M46.9966875,5.17616854 L61.751621,13.2701529 C64.5416823,30.8893998 65.4258754,42.4914342 64.4494675,52.8263906 C63.0365733,67.7814101 57.3620594,78.8830027 46.2885627,86.6488642 C33.4681934,95.6398105 19.753379,95.5232356 10.0535565,87.2594064 C1.18475425,79.7035705 -2.20003104,66.8777873 1.95215936,55.4307584 C3.22363891,51.9254607 7.1090711,50.1098673 10.630515,51.3755169 C14.151959,52.6411666 15.9759155,56.5087835 14.704436,60.0140812 C12.4647596,66.1885669 14.2899107,73.1045131 18.8695396,77.0061587 C23.6871597,81.1105627 30.5618918,81.1689974 38.4798414,75.6161262 C52.6700857,65.6644844 54.2270296,49.1847458 47.0223885,7.30556375 C46.8978668,6.58174267 46.8941458,5.86512688 46.9966875,5.17616854 Z" id="Combined-Shape" fill="#F9C54A" fill-rule="nonzero"></path>
                        <path d="M77.137689,21.7308709 L92.9296208,30.342074 C97.8484102,58.2035746 92.5273425,81.1143217 77.9221384,95.7516082 C73.14258,100.541666 67.6184611,104.357998 61.5439153,107.099777 C58.1341149,108.638809 54.1165471,107.134925 52.5704263,103.740759 C51.0243055,100.346593 52.5351163,96.3474466 55.9449166,94.808415 C60.5231377,92.7420104 64.6843835,89.8672174 68.3026402,86.2410126 C81.1925315,73.3228068 84.9341233,50.6920332 77.137689,21.7308709 Z M85.9707061,4.73237728 C87.5638213,9.15156896 88.9356838,13.4870517 90.0892089,17.7286896 L72.9519647,8.38454284 C72.2705987,5.14091589 74.0778961,1.81122923 77.3003788,0.660155379 C80.8243164,-0.598598427 84.7061541,1.22459742 85.9707061,4.73237728 Z" id="Combined-Shape" fill="#BB5C66" fill-rule="nonzero"></path>
                        <ellipse id="Oval" fill="#20C5D8" cx="15.2526327" cy="37.9693553" rx="6.77903714" ry="6.74795435"></ellipse>
                    </g>
                    <g id="Tentacles-Copy-2" transform="translate(174.756893, 57.195021) scale(-1, 1) rotate(4.000000) translate(-174.756893, -57.195021) translate(127.256893, 3.195021)">
                        <path d="M46.9966875,5.17616854 L61.751621,13.2701529 C64.5416823,30.8893998 65.4258754,42.4914342 64.4494675,52.8263906 C63.0365733,67.7814101 57.3620594,78.8830027 46.2885627,86.6488642 C33.4681934,95.6398105 19.753379,95.5232356 10.0535565,87.2594064 C1.18475425,79.7035705 -2.20003104,66.8777873 1.95215936,55.4307584 C3.22363891,51.9254607 7.1090711,50.1098673 10.630515,51.3755169 C14.151959,52.6411666 15.9759155,56.5087835 14.704436,60.0140812 C12.4647596,66.1885669 14.2899107,73.1045131 18.8695396,77.0061587 C23.6871597,81.1105627 30.5618918,81.1689974 38.4798414,75.6161262 C52.6700857,65.6644844 54.2270296,49.1847458 47.0223885,7.30556375 C46.8978668,6.58174267 46.8941458,5.86512688 46.9966875,5.17616854 Z" id="Combined-Shape" fill="#F9C54A" fill-rule="nonzero"></path>
                        <path d="M77.137689,21.7308709 L92.9296208,30.342074 C97.8484102,58.2035746 92.5273425,81.1143217 77.9221384,95.7516082 C73.14258,100.541666 67.6184611,104.357998 61.5439153,107.099777 C58.1341149,108.638809 54.1165471,107.134925 52.5704263,103.740759 C51.0243055,100.346593 52.5351163,96.3474466 55.9449166,94.808415 C60.5231377,92.7420104 64.6843835,89.8672174 68.3026402,86.2410126 C81.1925315,73.3228068 84.9341233,50.6920332 77.137689,21.7308709 Z M85.9707061,4.73237728 C87.5638213,9.15156896 88.9356838,13.4870517 90.0892089,17.7286896 L72.9519647,8.38454284 C72.2705987,5.14091589 74.0778961,1.81122923 77.3003788,0.660155379 C80.8243164,-0.598598427 84.7061541,1.22459742 85.9707061,4.73237728 Z" id="Combined-Shape" fill="#BB5C66" fill-rule="nonzero"></path>
                        <ellipse id="Oval" fill="#20C5D8" cx="15.2039614" cy="37.7885444" rx="6.77903714" ry="6.74795435"></ellipse>
                    </g>
                </g>
                <g id="body" transform="translate(122.000000, 0.000000)">
                    <polygon id="Path-2" fill="#FFFFFF" points="5.19576623 50.3722392 9.74301984 121.850925 23.8450806 138.060172 65.5412459 157.585489 82.2617603 157.585489 136.467253 128.715605 142.769699 116.980346 142.769699 48.0675541 136.467253 38.6401656 90.7972181 10.8565257 73.9827325 2.69376747 60.3935319 12.9238935 13.5 38.6401656"></polygon>
                    <path d="M76.9953768,143.417075 L76.9953768,78.5162007 C76.9953768,76.9255028 77.9379147,75.4859787 79.395905,74.8499096 L126.278234,54.3968251 C128.303071,53.5134612 130.660633,54.4388078 131.543997,56.4636444 C131.795388,57.0398809 131.907414,57.6672598 131.870986,58.2948895 L128.90615,109.376764 C128.464649,116.983483 123.739303,123.678505 116.719944,126.642571 L76.9953768,143.417075 L76.9953768,143.417075 Z" id="Path" fill="#F9C54A"></path>
                    <path d="M7.38990805,146.901789 L7.38990805,89.8066565 C7.38990805,85.1600342 10.0724677,80.9310493 14.2760324,78.9508619 L57.1611995,58.7488019 C59.1596961,57.8073634 61.5429844,58.6642783 62.4844229,60.6627749 C62.7355858,61.1959463 62.8658247,61.7780323 62.8658247,62.3674001 L62.8658247,113.938915 C62.8658247,121.614405 58.4732026,128.6128 51.5610782,131.949816 L13.1289587,150.503969 C11.1395295,151.46442 8.74817896,150.630269 7.78772778,148.64084 C7.52589634,148.098495 7.38990805,147.504029 7.38990805,146.901789 Z" id="Path-Copy" fill="#BB5C66" transform="translate(35.127866, 104.634581) scale(-1, 1) translate(-35.127866, -104.634581) "></path>
                    <path d="M68.4368129,4.05897381 L13.039596,37.1773567 L66.0737362,63.2712851 C70.5434778,65.4704933 75.7825205,65.4623813 80.2454303,63.2493421 L132.823314,37.1773567 L132.823314,37.1773567 L73.1650026,4.05897381 L68.4368129,4.05897381 Z" id="Path-11" fill="#20C5D8"></path>
                    <path d="M78.5636364,143.233173 C78.5636364,145.950067 76.4410591,148.152544 73.8227273,148.152544 C71.2043955,148.152544 69.0818182,145.950067 69.0818182,143.233173 L69.0818182,80.6868824 C69.0818182,77.9699887 71.2043955,75.7675112 73.8227273,75.7675112 C76.4410591,75.7675112 78.5636364,77.9699887 78.5636364,80.6868824 L78.5636364,143.233173 Z" id="Line-3" fill="#000000" fill-rule="nonzero"></path>
                    <path d="M118.199909,51.0090745 C120.573611,49.9052619 123.393721,50.9325023 124.498801,53.3034802 C125.603882,55.674458 124.575461,58.4913323 122.20176,59.5951449 L73.1418927,82.40884 L24.2502815,59.5924192 C21.8780871,58.4853789 20.853508,55.6671084 21.96182,53.2976359 C23.070132,50.9281634 25.8916398,49.9047599 28.2638341,51.0118002 L73.1490164,71.9585266 L118.199909,51.0090745 Z" id="Path-8" fill="#000000" fill-rule="nonzero"></path>
                    <ellipse id="Oval-2" fill="#000000" cx="28.4454545" cy="27.0598254" rx="5.41818182" ry="5.41196508"></ellipse>
                    <ellipse id="Oval-2-Copy" fill="#000000" cx="48.0863636" cy="39.9132425" rx="6.09545455" ry="6.08846072"></ellipse>
                    <ellipse id="Oval-2-Copy-2" fill="#000000" cx="72.4681818" cy="39.9132425" rx="6.09545455" ry="6.08846072"></ellipse>
                    <ellipse id="Oval-2-Copy-5" fill="#000000" cx="31.1545455" cy="86.5914413" rx="6.77272727" ry="6.76495636"></ellipse>
                    <ellipse id="Oval-2-Copy-6" fill="#000000" cx="47.4090909" cy="115.004258" rx="6.77272727" ry="6.76495636"></ellipse>
                    <ellipse id="Oval-2-Copy-3" fill="#000000" cx="96.85" cy="39.9132425" rx="6.09545455" ry="6.08846072"></ellipse>
                    <ellipse id="Oval-2-Copy-4" fill="#000000" cx="102.945455" cy="101.474345" rx="6.77272727" ry="6.76495636"></ellipse>
                    <path d="M59.197731,17.4040625 C56.6074681,18.9006327 53.2930416,18.0164289 51.7947522,15.4291379 C50.2964628,12.841847 51.1816823,9.5312234 53.7719453,8.03465315 L62.0139797,3.27267195 C69.5664315,-1.09089065 78.8775638,-1.09089065 86.4300156,3.27267195 L135.644542,31.7072354 C143.750928,36.3908433 148.670504,45.1030609 148.489877,54.4554091 L147.426723,109.502667 C147.165374,123.034586 139.43524,135.313192 127.338438,141.411057 L90.7627464,159.848461 C80.358518,165.093119 68.0747772,165.07095 57.6895906,159.788773 L21.4587197,141.360808 C9.5081958,135.28246 1.84669,123.158495 1.49414873,109.767834 L0.00818698918,53.3261888 C-0.219230841,44.6881222 4.3008688,36.6174427 11.7893283,32.2908528 C14.3795912,30.7942826 17.6940178,31.6784864 19.1923071,34.2657773 C20.6905965,36.8530682 19.805377,40.1636919 17.215114,41.6602621 C13.1634056,44.0012083 10.7177589,48.3679329 10.8408057,53.0416482 L12.3267674,109.483294 C12.574852,118.906351 17.966282,127.43803 26.37591,131.715386 L62.6067808,150.143352 C69.9148751,153.860439 78.558989,153.876039 85.8804831,150.185354 L122.456174,131.74795 C130.968739,127.45686 136.408463,118.816359 136.592375,109.293898 L137.655529,54.24664 C137.760103,48.8321226 134.911927,43.7882072 130.218757,41.0766447 L81.0042298,12.6420813 C76.8084233,10.2178798 71.635572,10.2178798 67.4397655,12.6420813 L59.197731,17.4040625 Z" id="Polygon" fill="#000000" fill-rule="nonzero"></path>
                </g>
                <g id="bubbles" transform="translate(68.000000, 0.000000)" fill="#20C5D8" fill-rule="nonzero">
                    <path d="M15.5,36 C11.3511431,36 8,32.6356635 8,28.5 C8,24.3643365 11.3511431,21 15.5,21 C19.6488569,21 23,24.3643365 23,28.5 C23,32.6356635 19.6488569,36 15.5,36 Z M15.5,33.0472441 C17.9785601,33.0472441 20,31.0178457 20,28.5 C20,25.9821543 17.9785601,23.9527559 15.5,23.9527559 C13.0214399,23.9527559 11,25.9821543 11,28.5 C11,31.0178457 13.0214399,33.0472441 15.5,33.0472441 Z" id="Oval-3-Copy"></path>
                    <path d="M7.5,15 C3.35114306,15 0,11.6356635 0,7.5 C0,3.36433653 3.35114306,0 7.5,0 C11.6488569,0 15,3.36433653 15,7.5 C15,11.6356635 11.6488569,15 7.5,15 Z M7.5,12 C9.97856005,12 12,9.99168629 12,7.5 C12,5.00831371 9.97856005,3 7.5,3 C5.02143995,3 3,5.00831371 3,7.5 C3,9.99168629 5.02143995,12 7.5,12 Z" id="Oval-3-Copy-2" opacity="0.445647321"></path>
                </g>
            </g>
        </g>
    </g>
</svg>