<?xml version="1.0" encoding="UTF-8"?>
<svg width="139px" height="35px" viewBox="0 0 139 35" version="1.1" xmlns="http://www.w3.org/2000/svg" xmlns:xlink="http://www.w3.org/1999/xlink">
    <!-- Generator: Sketch 64 (93537) - https://sketch.com -->
    <title>Octoboard Logo</title>
    <desc>Created with Sketch.</desc>
    <g id="Octoboard-Logo" stroke="none" stroke-width="1" fill="none" fill-rule="evenodd">
        <g id="Group-2">
            <g>
                <g id="tentacles" transform="translate(13.851476, 18.422927) rotate(60.000000) translate(-13.851476, -18.422927) translate(-0.742620, 10.913599)">
                    <g id="Tentacles-Copy" transform="translate(0.000000, 0.565949)">
                        <path d="M6.06962198,0.676406636 L7.9756608,1.73533631 C8.3357175,4.03507053 8.4497944,5.54970304 8.32373196,6.89896893 C8.14125485,8.85204983 7.40838406,10.3018847 5.97822765,11.316083 C4.3224604,12.4902738 2.55117442,12.4750494 1.29842981,11.395818 C0.153012541,10.4090484 -0.284136851,8.73403939 0.252123902,7.23909158 C0.416337129,6.78131017 0.918145714,6.54419908 1.37294475,6.70948915 C1.82774378,6.87477922 2.06331012,7.37987845 1.8990969,7.83765986 C1.6098398,8.64402926 1.84556043,9.54723118 2.4370254,10.0567745 C3.05922727,10.5927974 3.94710779,10.6004288 4.96972121,9.87524037 C6.80240959,8.57558565 7.00349091,6.42338098 6.07300221,0.954084818 C6.05694475,0.859701086 6.05644101,0.766255457 6.06962198,0.676406636 Z" id="Combined-Shape" fill="#F9C54A" fill-rule="nonzero"></path>
                        <path d="M9.96217976,2.83703893 L12.0019471,3.96239251 C12.6372727,7.60110797 11.9500589,10.5932547 10.0637448,12.5048742 C9.44645867,13.1304414 8.73301158,13.6288431 7.94847614,13.9869112 C7.50809602,14.1879041 6.98922195,13.9915014 6.78953845,13.5482335 C6.58985495,13.1049656 6.78497812,12.5826889 7.22535823,12.381696 C7.8166414,12.1118297 8.35407166,11.7363903 8.82137419,11.2628188 C10.4862594,9.57559875 10.9694324,6.61973439 9.96217976,2.83703893 Z M11.1032277,0.618034347 C11.3089847,1.19517917 11.4861655,1.76139141 11.6351466,2.3153473 L9.42204712,1.09598826 C9.33347686,0.672067335 9.56693107,0.236658477 9.98344376,0.0862143219 C10.4385648,-0.0781751677 10.9399092,0.159928768 11.1032277,0.618034347 Z" id="Combined-Shape" fill="#BB5C66" fill-rule="nonzero"></path>
                        <ellipse id="Oval" fill="#20C5D8" cx="1.96989722" cy="4.95868445" rx="1" ry="1"></ellipse>
                    </g>
                    <g id="Tentacles-Copy-2" transform="translate(22.570078, 7.469499) scale(-1, 1) rotate(4.000000) translate(-22.570078, -7.469499) translate(16.435392, 0.417260)">
                        <path d="M6.06962198,0.676406636 L7.9756608,1.73533631 C8.3357175,4.03507053 8.4497944,5.54970304 8.32373196,6.89896893 C8.14125485,8.85204983 7.40838406,10.3018847 5.97822765,11.316083 C4.3224604,12.4902738 2.55117442,12.4750494 1.29842981,11.395818 C0.153012541,10.4090484 -0.284136851,8.73403939 0.252123902,7.23909158 C0.416337129,6.78131017 0.918145714,6.54419908 1.37294475,6.70948915 C1.82774378,6.87477922 2.06331012,7.37987845 1.8990969,7.83765986 C1.6098398,8.64402926 1.84556043,9.54723118 2.4370254,10.0567745 C3.05922727,10.5927974 3.94710779,10.6004288 4.96972121,9.87524037 C6.80240959,8.57558565 7.00349091,6.42338098 6.07300221,0.954084818 C6.05694475,0.859701086 6.05644101,0.766255457 6.06962198,0.676406636 Z" id="Combined-Shape" fill="#F9C54A" fill-rule="nonzero"></path>
                        <path d="M9.96217976,2.83703893 L12.0019471,3.96239251 C12.6372727,7.60110797 11.9500589,10.5932547 10.0637448,12.5048742 C9.44645867,13.1304414 8.73301158,13.6288431 7.94847614,13.9869112 C7.50809602,14.1879041 6.98922195,13.9915014 6.78953845,13.5482335 C6.58985495,13.1049656 6.78497812,12.5826889 7.22535823,12.381696 C7.8166414,12.1118297 8.35407166,11.7363903 8.82137419,11.2628188 C10.4862594,9.57559875 10.9694324,6.61973439 9.96217976,2.83703893 Z M11.1032277,0.618034347 C11.3089847,1.19517917 11.4861655,1.76139141 11.6351466,2.3153473 L9.42204712,1.09598826 C9.33347686,0.672067335 9.56693107,0.236658477 9.98344376,0.0862143219 C10.4385648,-0.0781751677 10.9399092,0.159928768 11.1032277,0.618034347 Z" id="Combined-Shape" fill="#BB5C66" fill-rule="nonzero"></path>
                        <ellipse id="Oval" fill="#20C5D8" cx="1.96361126" cy="4.93507109" rx="1" ry="1"></ellipse>
                    </g>
                </g>
                <g id="body" transform="translate(15.756458, 0.000000)">
                    <polygon id="Path-2" fill="#FFFFFF" points="0.671039919 6.57846407 1.2583236 15.913367 3.07962295 18.0302463 8.46473656 20.5801945 10.6242126 20.5801945 17.624922 16.8098738 18.438891 15.277284 18.438891 6.27747907 17.624922 5.04629028 11.726578 1.41782985 9.55496545 0.35179799 7.79990264 1.68782192 1.74354244 5.04629028"></polygon>
                    <path d="M9.94405235,18.7298418 L9.94405235,12.5192843 C9.94405235,10.9345309 10.8796448,9.49920985 12.3295793,8.8595744 L13.5120523,8.33792905 C14.7174886,7.80615347 16.125777,8.35226337 16.6575526,9.55769966 C16.8100119,9.90329659 16.8782257,10.2801572 16.8565801,10.657268 L16.8176568,11.335394 C16.6569176,14.1358102 14.9237888,16.6035085 12.3440955,17.7050302 L9.94405235,18.7298418 L9.94405235,18.7298418 Z" id="Path" fill="#F9C54A"></path>
                    <path d="M0.954416169,16.0307293 L0.954416169,14.7024527 C0.954416169,12.2783973 2.34835802,10.0703872 4.53680931,9.0279259 C5.7858595,8.43294512 7.28074195,8.96317314 7.87572273,10.2122233 C8.03602105,10.5487395 8.11920246,10.9167865 8.11920246,11.2895313 L8.11920246,12.5330133 C8.11920246,14.9722978 6.72883586,17.1982473 4.53680931,18.2683541 C3.30100326,18.8716517 1.81011517,18.3589023 1.20681754,17.1230963 C1.04073782,16.7828955 0.954416169,16.4093043 0.954416169,16.0307293 Z" id="Path-Copy" fill="#BB5C66" transform="translate(4.536809, 13.664964) scale(-1, 1) translate(-4.536809, -13.664964) "></path>
                    <path d="M8.83870278,0.530089864 L1.68408067,4.85525181 L2.29438922,5.15889804 C6.79904335,7.40009426 12.095542,7.391838 16.593187,5.13660887 L17.1543026,4.85525181 L17.1543026,4.85525181 L9.44935458,0.530089864 L8.83870278,0.530089864 Z" id="Path-11" fill="#20C5D8"></path>
                    <path d="M10.1465951,18.7058248 C10.1465951,19.060643 9.8724615,19.34828 9.53430057,19.34828 C9.19613964,19.34828 8.92200604,19.060643 8.92200604,18.7058248 L8.92200604,10.537466 C8.92200604,10.1826478 9.19613964,9.89501079 9.53430057,9.89501079 C9.8724615,9.89501079 10.1465951,10.1826478 10.1465951,10.537466 L10.1465951,18.7058248 Z" id="Line-3" fill="#000000" fill-rule="nonzero"></path>
                    <path d="M15.2656709,6.66163287 C15.5722375,6.51747824 15.9364584,6.65163277 16.079181,6.9612754 C16.2219036,7.27091803 16.0890817,7.63879339 15.7825151,7.78294802 L9.44636991,10.7623485 L3.13195517,7.78259206 C2.82558321,7.6380159 2.6932575,7.26995819 2.83639742,6.96051215 C2.97953734,6.65106612 3.34393872,6.51741267 3.65031068,6.66198883 L9.44728994,9.39756877 L15.2656709,6.66163287 Z" id="Path-8" fill="#000000" fill-rule="nonzero"></path>
                    <ellipse id="Oval-2" fill="#000000" cx="3.67376719" cy="3.53393242" rx="1" ry="1"></ellipse>
                    <ellipse id="Oval-2-Copy" fill="#000000" cx="6.21041597" cy="5.21255033" rx="1" ry="1"></ellipse>
                    <ellipse id="Oval-2-Copy-2" fill="#000000" cx="9.35935928" cy="5.21255033" rx="1" ry="1"></ellipse>
                    <ellipse id="Oval-2-Copy-5" fill="#000000" cx="4.02364978" cy="11.3085838" rx="1" ry="1"></ellipse>
                    <ellipse id="Oval-2-Copy-6" fill="#000000" cx="6.12294532" cy="15.0192128" rx="1" ry="1"></ellipse>
                    <ellipse id="Oval-2-Copy-3" fill="#000000" cx="12.5083026" cy="5.21255033" rx="1" ry="1"></ellipse>
                    <ellipse id="Oval-2-Copy-4" fill="#000000" cx="13.2955384" cy="13.2522466" rx="1" ry="1"></ellipse>
                    <path d="M7.64546342,2.2729186 C7.31092761,2.46836621 6.88286515,2.35289183 6.68935914,2.01499936 C6.49585313,1.67710689 6.61018038,1.24474932 6.94471618,1.04930172 L8.00918558,0.427401188 C8.98459447,-0.142467063 10.1871392,-0.142467063 11.1625481,0.427401188 L17.5186678,4.14087029 C18.5656181,4.75253551 19.2009876,5.89032512 19.1776594,7.11171388 L19.0403517,14.3007214 C19.0065982,16.0679496 18.0082413,17.6714989 16.4459237,18.4678619 L11.7221259,20.8757319 C10.3784064,21.5606685 8.79194539,21.5577733 7.45068513,20.8679368 L2.77142137,18.4612995 C1.22799577,17.6674854 0.238502399,16.0841318 0.192971238,14.3353515 L0.00105736023,6.96424108 C-0.0283139462,5.83613536 0.55546276,4.78212872 1.52260697,4.21708899 C1.85714278,4.02164138 2.28520525,4.13711576 2.47871125,4.47500823 C2.67221726,4.8129007 2.55789001,5.24525826 2.22335421,5.44070587 C1.70007083,5.74642646 1.3842124,6.31670766 1.40010405,6.92708093 L1.59201793,14.2981913 C1.62405838,15.5288145 2.32036853,16.6430263 3.40648284,17.2016362 L8.0857466,19.6082735 C9.02959641,20.093714 10.1459949,20.0957514 11.0915753,19.613759 L15.8153731,17.205889 C16.9147818,16.6454854 17.6173292,15.5170618 17.6410816,14.2734568 L17.7783894,7.08444925 C17.7918952,6.37732945 17.4240497,5.71860915 16.8179206,5.36448718 L10.4618009,1.65101807 C9.91990707,1.3344246 9.25182664,1.3344246 8.70993281,1.65101807 L7.64546342,2.2729186 Z" id="Polygon" fill="#000000" fill-rule="nonzero"></path>
                </g>
                <g id="bubbles" transform="translate(8.782288, 0.000000)" fill="#20C5D8" fill-rule="nonzero">
                    <path d="M2.00184502,4.70149254 C1.46601479,4.70149254 1.03321033,4.26212023 1.03321033,3.72201493 C1.03321033,3.18190962 1.46601479,2.74253731 2.00184502,2.74253731 C2.53767525,2.74253731 2.9704797,3.18190962 2.9704797,3.72201493 C2.9704797,4.26212023 2.53767525,4.70149254 2.00184502,4.70149254 Z M2.00184502,4.31587143 C2.32195425,4.31587143 2.58302583,4.05083806 2.58302583,3.72201493 C2.58302583,3.39319179 2.32195425,3.12815842 2.00184502,3.12815842 C1.68173579,3.12815842 1.42066421,3.39319179 1.42066421,3.72201493 C1.42066421,4.05083806 1.68173579,4.31587143 2.00184502,4.31587143 Z" id="Oval-3-Copy"></path>
                    <path d="M0.968634686,1.95895522 C0.432804454,1.95895522 0,1.51958292 0,0.979477612 C0,0.439372308 0.432804454,0 0.968634686,0 C1.50446492,0 1.93726937,0.439372308 1.93726937,0.979477612 C1.93726937,1.51958292 1.50446492,1.95895522 0.968634686,1.95895522 Z M0.968634686,1.56716418 C1.28874392,1.56716418 1.5498155,1.3048844 1.5498155,0.979477612 C1.5498155,0.654070821 1.28874392,0.391791045 0.968634686,0.391791045 C0.648525454,0.391791045 0.387453875,0.654070821 0.387453875,0.979477612 C0.387453875,1.3048844 0.648525454,1.56716418 0.968634686,1.56716418 Z" id="Oval-3-Copy-2" opacity="0.445647321"></path>
                </g>
            </g>
        </g>
        <path d="M44.904,16.144 C45.924,16.144 46.836,15.931 47.64,15.505 C48.444,15.079 49.074,14.488 49.53,13.732 C49.986,12.976 50.214,12.118 50.214,11.158 C50.214,10.198 49.986,9.34 49.53,8.584 C49.074,7.828 48.444,7.237 47.64,6.811 C46.836,6.385 45.924,6.172 44.904,6.172 C43.884,6.172 42.969,6.385 42.159,6.811 C41.349,7.237 40.716,7.828 40.26,8.584 C39.804,9.34 39.576,10.198 39.576,11.158 C39.576,12.118 39.804,12.976 40.26,13.732 C40.716,14.488 41.349,15.079 42.159,15.505 C42.969,15.931 43.884,16.144 44.904,16.144 Z M44.904,13.84 C44.184,13.84 43.59,13.597 43.122,13.111 C42.654,12.625 42.42,11.974 42.42,11.158 C42.42,10.342 42.654,9.691 43.122,9.205 C43.59,8.719 44.184,8.476 44.904,8.476 C45.624,8.476 46.215,8.719 46.677,9.205 C47.139,9.691 47.37,10.342 47.37,11.158 C47.37,11.974 47.139,12.625 46.677,13.111 C46.215,13.597 45.624,13.84 44.904,13.84 Z M57.266,16.144 C58.286,16.144 59.177,15.928 59.939,15.496 C60.701,15.064 61.256,14.464 61.604,13.696 L61.604,13.696 L59.426,12.508 C58.934,13.396 58.208,13.84 57.248,13.84 C56.516,13.84 55.91,13.6 55.43,13.12 C54.95,12.64 54.71,11.986 54.71,11.158 C54.71,10.33 54.95,9.676 55.43,9.196 C55.91,8.716 56.516,8.476 57.248,8.476 C58.196,8.476 58.922,8.92 59.426,9.808 L59.426,9.808 L61.604,8.638 C61.256,7.846 60.701,7.237 59.939,6.811 C59.177,6.385 58.286,6.172 57.266,6.172 C56.234,6.172 55.307,6.385 54.485,6.811 C53.663,7.237 53.021,7.828 52.559,8.584 C52.097,9.34 51.866,10.198 51.866,11.158 C51.866,12.118 52.097,12.976 52.559,13.732 C53.021,14.488 53.663,15.079 54.485,15.505 C55.307,15.931 56.234,16.144 57.266,16.144 Z M67.828,16.144 C68.272,16.144 68.695,16.093 69.097,15.991 C69.499,15.889 69.838,15.736 70.114,15.532 L70.114,15.532 L69.358,13.552 C69.046,13.792 68.668,13.912 68.224,13.912 C67.84,13.912 67.543,13.801 67.333,13.579 C67.123,13.357 67.018,13.042 67.018,12.634 L67.018,12.634 L67.018,8.692 L69.43,8.692 L69.43,6.532 L67.018,6.532 L67.018,4.174 L64.21,4.174 L64.21,6.532 L62.716,6.532 L62.716,8.692 L64.21,8.692 L64.21,12.67 C64.21,13.81 64.525,14.674 65.155,15.262 C65.785,15.85 66.676,16.144 67.828,16.144 Z M76.5,16.144 C77.52,16.144 78.432,15.931 79.236,15.505 C80.04,15.079 80.67,14.488 81.126,13.732 C81.582,12.976 81.81,12.118 81.81,11.158 C81.81,10.198 81.582,9.34 81.126,8.584 C80.67,7.828 80.04,7.237 79.236,6.811 C78.432,6.385 77.52,6.172 76.5,6.172 C75.48,6.172 74.565,6.385 73.755,6.811 C72.945,7.237 72.312,7.828 71.856,8.584 C71.4,9.34 71.172,10.198 71.172,11.158 C71.172,12.118 71.4,12.976 71.856,13.732 C72.312,14.488 72.945,15.079 73.755,15.505 C74.565,15.931 75.48,16.144 76.5,16.144 Z M76.5,13.84 C75.78,13.84 75.186,13.597 74.718,13.111 C74.25,12.625 74.016,11.974 74.016,11.158 C74.016,10.342 74.25,9.691 74.718,9.205 C75.186,8.719 75.78,8.476 76.5,8.476 C77.22,8.476 77.811,8.719 78.273,9.205 C78.735,9.691 78.966,10.342 78.966,11.158 C78.966,11.974 78.735,12.625 78.273,13.111 C77.811,13.597 77.22,13.84 76.5,13.84 Z M89.906,16.144 C90.806,16.144 91.625,15.937 92.363,15.523 C93.101,15.109 93.68,14.527 94.1,13.777 C94.52,13.027 94.73,12.154 94.73,11.158 C94.73,10.162 94.52,9.289 94.1,8.539 C93.68,7.789 93.101,7.207 92.363,6.793 C91.625,6.379 90.806,6.172 89.906,6.172 C88.67,6.172 87.698,6.562 86.99,7.342 L86.99,7.342 L86.99,2.644 L84.182,2.644 L84.182,16 L86.864,16 L86.864,14.884 C87.56,15.724 88.574,16.144 89.906,16.144 Z M89.42,13.84 C88.7,13.84 88.109,13.597 87.647,13.111 C87.185,12.625 86.954,11.974 86.954,11.158 C86.954,10.342 87.185,9.691 87.647,9.205 C88.109,8.719 88.7,8.476 89.42,8.476 C90.14,8.476 90.731,8.719 91.193,9.205 C91.655,9.691 91.886,10.342 91.886,11.158 C91.886,11.974 91.655,12.625 91.193,13.111 C90.731,13.597 90.14,13.84 89.42,13.84 Z M101.71,16.144 C102.73,16.144 103.642,15.931 104.446,15.505 C105.25,15.079 105.88,14.488 106.336,13.732 C106.792,12.976 107.02,12.118 107.02,11.158 C107.02,10.198 106.792,9.34 106.336,8.584 C105.88,7.828 105.25,7.237 104.446,6.811 C103.642,6.385 102.73,6.172 101.71,6.172 C100.69,6.172 99.775,6.385 98.965,6.811 C98.155,7.237 97.522,7.828 97.066,8.584 C96.61,9.34 96.382,10.198 96.382,11.158 C96.382,12.118 96.61,12.976 97.066,13.732 C97.522,14.488 98.155,15.079 98.965,15.505 C99.775,15.931 100.69,16.144 101.71,16.144 Z M101.71,13.84 C100.99,13.84 100.396,13.597 99.928,13.111 C99.46,12.625 99.226,11.974 99.226,11.158 C99.226,10.342 99.46,9.691 99.928,9.205 C100.396,8.719 100.99,8.476 101.71,8.476 C102.43,8.476 103.021,8.719 103.483,9.205 C103.945,9.691 104.176,10.342 104.176,11.158 C104.176,11.974 103.945,12.625 103.483,13.111 C103.021,13.597 102.43,13.84 101.71,13.84 Z M112.218,16.144 C113.658,16.144 114.642,15.694 115.17,14.794 L115.17,14.794 L115.17,16 L117.798,16 L117.798,10.474 C117.798,9.034 117.396,7.957 116.592,7.243 C115.788,6.529 114.636,6.172 113.136,6.172 C112.356,6.172 111.597,6.274 110.859,6.478 C110.121,6.682 109.488,6.97 108.96,7.342 L108.96,7.342 L109.968,9.304 C110.316,9.028 110.739,8.809 111.237,8.647 C111.735,8.485 112.242,8.404 112.758,8.404 C113.502,8.404 114.06,8.569 114.432,8.899 C114.804,9.229 114.99,9.7 114.99,10.312 L114.99,10.312 L112.758,10.312 C111.342,10.312 110.295,10.57 109.617,11.086 C108.939,11.602 108.6,12.31 108.6,13.21 C108.6,13.774 108.744,14.278 109.032,14.722 C109.32,15.166 109.737,15.514 110.283,15.766 C110.829,16.018 111.474,16.144 112.218,16.144 Z M112.92,14.254 C112.428,14.254 112.041,14.149 111.759,13.939 C111.477,13.729 111.336,13.444 111.336,13.084 C111.336,12.328 111.912,11.95 113.064,11.95 L113.064,11.95 L114.99,11.95 L114.99,12.94 C114.834,13.372 114.57,13.699 114.198,13.921 C113.826,14.143 113.4,14.254 112.92,14.254 Z M123.644,16 L123.644,11.428 C123.644,10.528 123.872,9.853 124.328,9.403 C124.784,8.953 125.414,8.728 126.218,8.728 C126.326,8.728 126.536,8.74 126.848,8.764 L126.848,8.764 L126.848,6.172 C126.104,6.172 125.447,6.292 124.877,6.532 C124.307,6.772 123.854,7.126 123.518,7.594 L123.518,7.594 L123.518,6.316 L120.836,6.316 L120.836,16 L123.644,16 Z M133.252,16.144 C134.572,16.144 135.58,15.724 136.276,14.884 L136.276,14.884 L136.276,16 L138.958,16 L138.958,2.644 L136.15,2.644 L136.15,7.342 C135.454,6.562 134.488,6.172 133.252,6.172 C132.34,6.172 131.515,6.376 130.777,6.784 C130.039,7.192 129.46,7.774 129.04,8.53 C128.62,9.286 128.41,10.162 128.41,11.158 C128.41,12.154 128.62,13.03 129.04,13.786 C129.46,14.542 130.039,15.124 130.777,15.532 C131.515,15.94 132.34,16.144 133.252,16.144 Z M133.738,13.84 C133.018,13.84 132.424,13.597 131.956,13.111 C131.488,12.625 131.254,11.974 131.254,11.158 C131.254,10.342 131.488,9.691 131.956,9.205 C132.424,8.719 133.018,8.476 133.738,8.476 C134.446,8.476 135.034,8.719 135.502,9.205 C135.97,9.691 136.204,10.342 136.204,11.158 C136.204,11.974 135.97,12.625 135.502,13.111 C135.034,13.597 134.446,13.84 133.738,13.84 Z" id="octoboard" fill="#000000" fill-rule="nonzero"></path>
    </g>
</svg>