<?xml version="1.0" encoding="UTF-8" ?>
<svg
  width="842px"
  height="314px"
  viewBox="0 0 842 314"
  version="1.1"
  xmlns="http://www.w3.org/2000/svg"
  xmlns:xlink="http://www.w3.org/1999/xlink"
>
    <!-- Generator: Sketch 61.2 (89653) - https://sketch.com -->
    <title>Artboard 4</title>
    <desc>Created with Sketch.</desc>
    <g id="Artboard-4" stroke="none" stroke-width="1" fill="none" fill-rule="evenodd">
        <path
      d="M340.52,155.72 C345.62,155.72 350.18,154.655 354.2,152.525 C358.22,150.395 361.37,147.44 363.65,143.66 C365.93,139.88 367.07,135.59 367.07,130.79 C367.07,125.99 365.93,121.7 363.65,117.92 C361.37,114.14 358.22,111.185 354.2,109.055 C350.18,106.925 345.62,105.86 340.52,105.86 C335.42,105.86 330.845,106.925 326.795,109.055 C322.745,111.185 319.58,114.14 317.3,117.92 C315.02,121.7 313.88,125.99 313.88,130.79 C313.88,135.59 315.02,139.88 317.3,143.66 C319.58,147.44 322.745,150.395 326.795,152.525 C330.845,154.655 335.42,155.72 340.52,155.72 Z M340.52,144.2 C336.92,144.2 333.95,142.985 331.61,140.555 C329.27,138.125 328.1,134.87 328.1,130.79 C328.1,126.71 329.27,123.455 331.61,121.025 C333.95,118.595 336.92,117.38 340.52,117.38 C344.12,117.38 347.075,118.595 349.385,121.025 C351.695,123.455 352.85,126.71 352.85,130.79 C352.85,134.87 351.695,138.125 349.385,140.555 C347.075,142.985 344.12,144.2 340.52,144.2 Z M402.287142,155.72 C407.387142,155.72 411.842142,154.64 415.652142,152.48 C419.462142,150.32 422.237142,147.32 423.977142,143.48 L423.977142,143.48 L413.087142,137.54 C410.627142,141.98 406.997142,144.2 402.197142,144.2 C398.537142,144.2 395.507142,143 393.107142,140.6 C390.707142,138.2 389.507142,134.93 389.507142,130.79 C389.507142,126.65 390.707142,123.38 393.107142,120.98 C395.507142,118.58 398.537142,117.38 402.197142,117.38 C406.937142,117.38 410.567142,119.6 413.087142,124.04 L413.087142,124.04 L423.977142,118.19 C422.237142,114.23 419.462142,111.185 415.652142,109.055 C411.842142,106.925 407.387142,105.86 402.287142,105.86 C397.127142,105.86 392.492142,106.925 388.382142,109.055 C384.272142,111.185 381.062142,114.14 378.752142,117.92 C376.442142,121.7 375.287142,125.99 375.287142,130.79 C375.287142,135.59 376.442142,139.88 378.752142,143.66 C381.062142,147.44 384.272142,150.395 388.382142,152.525 C392.492142,154.655 397.127142,155.72 402.287142,155.72 Z M455.054284,155.72 C457.274284,155.72 459.389284,155.465 461.399284,154.955 C463.409284,154.445 465.104284,153.68 466.484284,152.66 L466.484284,152.66 L462.704284,142.76 C461.144284,143.96 459.254284,144.56 457.034284,144.56 C455.114284,144.56 453.629284,144.005 452.579284,142.895 C451.529284,141.785 451.004284,140.21 451.004284,138.17 L451.004284,138.17 L451.004284,118.46 L463.064284,118.46 L463.064284,107.66 L451.004284,107.66 L451.004284,95.87 L436.964284,95.87 L436.964284,107.66 L429.494284,107.66 L429.494284,118.46 L436.964284,118.46 L436.964284,138.35 C436.964284,144.05 438.539284,148.37 441.689284,151.31 C444.839284,154.25 449.294284,155.72 455.054284,155.72 Z M498.371426,155.72 C503.471426,155.72 508.031426,154.655 512.051426,152.525 C516.071426,150.395 519.221426,147.44 521.501426,143.66 C523.781426,139.88 524.921426,135.59 524.921426,130.79 C524.921426,125.99 523.781426,121.7 521.501426,117.92 C519.221426,114.14 516.071426,111.185 512.051426,109.055 C508.031426,106.925 503.471426,105.86 498.371426,105.86 C493.271426,105.86 488.696426,106.925 484.646426,109.055 C480.596426,111.185 477.431426,114.14 475.151426,117.92 C472.871426,121.7 471.731426,125.99 471.731426,130.79 C471.731426,135.59 472.871426,139.88 475.151426,143.66 C477.431426,147.44 480.596426,150.395 484.646426,152.525 C488.696426,154.655 493.271426,155.72 498.371426,155.72 Z M498.371426,144.2 C494.771426,144.2 491.801426,142.985 489.461426,140.555 C487.121426,138.125 485.951426,134.87 485.951426,130.79 C485.951426,126.71 487.121426,123.455 489.461426,121.025 C491.801426,118.595 494.771426,117.38 498.371426,117.38 C501.971426,117.38 504.926426,118.595 507.236426,121.025 C509.546426,123.455 510.701426,126.71 510.701426,130.79 C510.701426,134.87 509.546426,138.125 507.236426,140.555 C504.926426,142.985 501.971426,144.2 498.371426,144.2 Z M565.358568,155.72 C569.858568,155.72 573.953568,154.685 577.643568,152.615 C581.333568,150.545 584.228568,147.635 586.328568,143.885 C588.428568,140.135 589.478568,135.77 589.478568,130.79 C589.478568,125.81 588.428568,121.445 586.328568,117.695 C584.228568,113.945 581.333568,111.035 577.643568,108.965 C573.953568,106.895 569.858568,105.86 565.358568,105.86 C559.178568,105.86 554.318568,107.81 550.778568,111.71 L550.778568,111.71 L550.778568,88.22 L536.738568,88.22 L536.738568,155 L550.148568,155 L550.148568,149.42 C553.628568,153.62 558.698568,155.72 565.358568,155.72 Z M562.928568,144.2 C559.328568,144.2 556.373568,142.985 554.063568,140.555 C551.753568,138.125 550.598568,134.87 550.598568,130.79 C550.598568,126.71 551.753568,123.455 554.063568,121.025 C556.373568,118.595 559.328568,117.38 562.928568,117.38 C566.528568,117.38 569.483568,118.595 571.793568,121.025 C574.103568,123.455 575.258568,126.71 575.258568,130.79 C575.258568,134.87 574.103568,138.125 571.793568,140.555 C569.483568,142.985 566.528568,144.2 562.928568,144.2 Z M624.33571,155.72 C629.43571,155.72 633.99571,154.655 638.01571,152.525 C642.03571,150.395 645.18571,147.44 647.46571,143.66 C649.74571,139.88 650.88571,135.59 650.88571,130.79 C650.88571,125.99 649.74571,121.7 647.46571,117.92 C645.18571,114.14 642.03571,111.185 638.01571,109.055 C633.99571,106.925 629.43571,105.86 624.33571,105.86 C619.23571,105.86 614.66071,106.925 610.61071,109.055 C606.56071,111.185 603.39571,114.14 601.11571,117.92 C598.83571,121.7 597.69571,125.99 597.69571,130.79 C597.69571,135.59 598.83571,139.88 601.11571,143.66 C603.39571,147.44 606.56071,150.395 610.61071,152.525 C614.66071,154.655 619.23571,155.72 624.33571,155.72 Z M624.33571,144.2 C620.73571,144.2 617.76571,142.985 615.42571,140.555 C613.08571,138.125 611.91571,134.87 611.91571,130.79 C611.91571,126.71 613.08571,123.455 615.42571,121.025 C617.76571,118.595 620.73571,117.38 624.33571,117.38 C627.93571,117.38 630.89071,118.595 633.20071,121.025 C635.51071,123.455 636.66571,126.71 636.66571,130.79 C636.66571,134.87 635.51071,138.125 633.20071,140.555 C630.89071,142.985 627.93571,144.2 624.33571,144.2 Z M676.832852,155.72 C684.032852,155.72 688.952852,153.47 691.592852,148.97 L691.592852,148.97 L691.592852,155 L704.732852,155 L704.732852,127.37 C704.732852,120.17 702.722852,114.785 698.702852,111.215 C694.682852,107.645 688.922852,105.86 681.422852,105.86 C677.522852,105.86 673.727852,106.37 670.037852,107.39 C666.347852,108.41 663.182852,109.85 660.542852,111.71 L660.542852,111.71 L665.582852,121.52 C667.322852,120.14 669.437852,119.045 671.927852,118.235 C674.417852,117.425 676.952852,117.02 679.532852,117.02 C683.252852,117.02 686.042852,117.845 687.902852,119.495 C689.762852,121.145 690.692852,123.5 690.692852,126.56 L690.692852,126.56 L679.532852,126.56 C672.452852,126.56 667.217852,127.85 663.827852,130.43 C660.437852,133.01 658.742852,136.55 658.742852,141.05 C658.742852,143.87 659.462852,146.39 660.902852,148.61 C662.342852,150.83 664.427852,152.57 667.157852,153.83 C669.887852,155.09 673.112852,155.72 676.832852,155.72 Z M680.342852,146.27 C677.882852,146.27 675.947852,145.745 674.537852,144.695 C673.127852,143.645 672.422852,142.22 672.422852,140.42 C672.422852,136.64 675.302852,134.75 681.062852,134.75 L681.062852,134.75 L690.692852,134.75 L690.692852,139.7 C689.912852,141.86 688.592852,143.495 686.732852,144.605 C684.872852,145.715 682.742852,146.27 680.342852,146.27 Z M733.919994,155 L733.919994,132.14 C733.919994,127.64 735.059994,124.265 737.339994,122.015 C739.619994,119.765 742.769994,118.64 746.789994,118.64 C747.329994,118.64 748.379994,118.7 749.939994,118.82 L749.939994,118.82 L749.939994,105.86 C746.219994,105.86 742.934994,106.46 740.084994,107.66 C737.234994,108.86 734.969994,110.63 733.289994,112.97 L733.289994,112.97 L733.289994,106.58 L719.879994,106.58 L719.879994,155 L733.919994,155 Z M781.107136,155.72 C787.707136,155.72 792.747136,153.62 796.227136,149.42 L796.227136,149.42 L796.227136,155 L809.637136,155 L809.637136,88.22 L795.597136,88.22 L795.597136,111.71 C792.117136,107.81 787.287136,105.86 781.107136,105.86 C776.547136,105.86 772.422136,106.88 768.732136,108.92 C765.042136,110.96 762.147136,113.87 760.047136,117.65 C757.947136,121.43 756.897136,125.81 756.897136,130.79 C756.897136,135.77 757.947136,140.15 760.047136,143.93 C762.147136,147.71 765.042136,150.62 768.732136,152.66 C772.422136,154.7 776.547136,155.72 781.107136,155.72 Z M783.537136,144.2 C779.937136,144.2 776.967136,142.985 774.627136,140.555 C772.287136,138.125 771.117136,134.87 771.117136,130.79 C771.117136,126.71 772.287136,123.455 774.627136,121.025 C776.967136,118.595 779.937136,117.38 783.537136,117.38 C787.077136,117.38 790.017136,118.595 792.357136,121.025 C794.697136,123.455 795.867136,126.71 795.867136,130.79 C795.867136,134.87 794.697136,138.125 792.357136,140.555 C790.017136,142.985 787.077136,144.2 783.537136,144.2 Z"
      id="octoboard"
      fill="#000000"
      fill-rule="nonzero"
    />
        <path
      d="M319.48,190 L319.48,167.6 L311.256,167.6 L311.256,170.384 L316.312,170.384 L316.312,190 L319.48,190 Z M334.728,190.256 C336.477333,190.256 338.04,189.802667 339.416,188.896 C340.792,187.989333 341.874667,186.672 342.664,184.944 C343.453333,183.216 343.848,181.168 343.848,178.8 C343.848,176.432 343.453333,174.384 342.664,172.656 C341.874667,170.928 340.792,169.610667 339.416,168.704 C338.04,167.797333 336.477333,167.344 334.728,167.344 C332.957333,167.344 331.384,167.797333 330.008,168.704 C328.632,169.610667 327.549333,170.928 326.76,172.656 C325.970667,174.384 325.576,176.432 325.576,178.8 C325.576,181.168 325.970667,183.216 326.76,184.944 C327.549333,186.672 328.632,187.989333 330.008,188.896 C331.384,189.802667 332.957333,190.256 334.728,190.256 Z M334.728,187.408 C332.914667,187.408 331.469333,186.672 330.392,185.2 C329.314667,183.728 328.776,181.594667 328.776,178.8 C328.776,176.005333 329.314667,173.872 330.392,172.4 C331.469333,170.928 332.914667,170.192 334.728,170.192 C336.52,170.192 337.954667,170.928 339.032,172.4 C340.109333,173.872 340.648,176.005333 340.648,178.8 C340.648,181.594667 340.109333,183.728 339.032,185.2 C337.954667,186.672 336.52,187.408 334.728,187.408 Z M357.272,190.256 C359.021333,190.256 360.584,189.802667 361.96,188.896 C363.336,187.989333 364.418667,186.672 365.208,184.944 C365.997333,183.216 366.392,181.168 366.392,178.8 C366.392,176.432 365.997333,174.384 365.208,172.656 C364.418667,170.928 363.336,169.610667 361.96,168.704 C360.584,167.797333 359.021333,167.344 357.272,167.344 C355.501333,167.344 353.928,167.797333 352.552,168.704 C351.176,169.610667 350.093333,170.928 349.304,172.656 C348.514667,174.384 348.12,176.432 348.12,178.8 C348.12,181.168 348.514667,183.216 349.304,184.944 C350.093333,186.672 351.176,187.989333 352.552,188.896 C353.928,189.802667 355.501333,190.256 357.272,190.256 Z M357.272,187.408 C355.458667,187.408 354.013333,186.672 352.936,185.2 C351.858667,183.728 351.32,181.594667 351.32,178.8 C351.32,176.005333 351.858667,173.872 352.936,172.4 C354.013333,170.928 355.458667,170.192 357.272,170.192 C359.064,170.192 360.498667,170.928 361.576,172.4 C362.653333,173.872 363.192,176.005333 363.192,178.8 C363.192,181.594667 362.653333,183.728 361.576,185.2 C360.498667,186.672 359.064,187.408 357.272,187.408 Z M375.528,179.632 C377.085333,179.632 378.338667,179.072 379.288,177.952 C380.237333,176.832 380.712,175.354667 380.712,173.52 C380.712,171.685333 380.237333,170.208 379.288,169.088 C378.338667,167.968 377.085333,167.408 375.528,167.408 C373.970667,167.408 372.712,167.973333 371.752,169.104 C370.792,170.234667 370.312,171.706667 370.312,173.52 C370.312,175.333333 370.792,176.805333 371.752,177.936 C372.712,179.066667 373.970667,179.632 375.528,179.632 Z M376.2,190 L391.496,167.6 L389.032,167.6 L373.736,190 L376.2,190 Z M375.528,177.808 C374.568,177.808 373.805333,177.424 373.24,176.656 C372.674667,175.888 372.392,174.842667 372.392,173.52 C372.392,172.197333 372.674667,171.152 373.24,170.384 C373.805333,169.616 374.568,169.232 375.528,169.232 C376.509333,169.232 377.277333,169.610667 377.832,170.368 C378.386667,171.125333 378.664,172.176 378.664,173.52 C378.664,174.864 378.386667,175.914667 377.832,176.672 C377.277333,177.429333 376.509333,177.808 375.528,177.808 Z M389.704,190.192 C391.261333,190.192 392.52,189.626667 393.48,188.496 C394.44,187.365333 394.92,185.893333 394.92,184.08 C394.92,182.266667 394.44,180.794667 393.48,179.664 C392.52,178.533333 391.261333,177.968 389.704,177.968 C388.146667,177.968 386.893333,178.528 385.944,179.648 C384.994667,180.768 384.52,182.245333 384.52,184.08 C384.52,185.914667 384.994667,187.392 385.944,188.512 C386.893333,189.632 388.146667,190.192 389.704,190.192 Z M389.704,188.368 C388.722667,188.368 387.954667,187.989333 387.4,187.232 C386.845333,186.474667 386.568,185.424 386.568,184.08 C386.568,182.736 386.845333,181.685333 387.4,180.928 C387.954667,180.170667 388.722667,179.792 389.704,179.792 C390.664,179.792 391.426667,180.176 391.992,180.944 C392.557333,181.712 392.84,182.757333 392.84,184.08 C392.84,185.402667 392.557333,186.448 391.992,187.216 C391.426667,187.984 390.664,188.368 389.704,188.368 Z M417.288,190.192 C418.973334,190.192 420.482667,189.818667 421.816,189.072 C423.149334,188.325333 424.194667,187.296 424.952,185.984 C425.709334,184.672 426.088,183.184 426.088,181.52 C426.088,179.856 425.709334,178.368 424.952,177.056 C424.194667,175.744 423.149334,174.72 421.816,173.984 C420.482667,173.248 418.973334,172.88 417.288,172.88 C415.602667,172.88 414.088,173.248 412.744,173.984 C411.4,174.72 410.349334,175.744 409.592,177.056 C408.834667,178.368 408.456,179.856 408.456,181.52 C408.456,183.184 408.834667,184.672 409.592,185.984 C410.349334,187.296 411.4,188.325333 412.744,189.072 C414.088,189.818667 415.602667,190.192 417.288,190.192 Z M417.288,187.504 C416.2,187.504 415.224,187.253333 414.36,186.752 C413.496,186.250667 412.813334,185.546667 412.312,184.64 C411.810667,183.733333 411.56,182.693333 411.56,181.52 C411.56,180.346667 411.810667,179.306667 412.312,178.4 C412.813334,177.493333 413.496,176.794667 414.36,176.304 C415.224,175.813333 416.2,175.568 417.288,175.568 C418.376,175.568 419.352,175.813333 420.216,176.304 C421.08,176.794667 421.757334,177.493333 422.248,178.4 C422.738667,179.306667 422.984,180.346667 422.984,181.52 C422.984,182.693333 422.738667,183.733333 422.248,184.64 C421.757334,185.546667 421.08,186.250667 420.216,186.752 C419.352,187.253333 418.376,187.504 417.288,187.504 Z M438.936,190.192 C440.472,190.192 441.842667,189.877333 443.048,189.248 C444.253334,188.618667 445.186667,187.717333 445.848,186.544 L445.848,186.544 L443.512,185.072 C442.978667,185.882667 442.317334,186.490667 441.528,186.896 C440.738667,187.301333 439.864,187.504 438.904,187.504 C437.794667,187.504 436.797334,187.258667 435.912,186.768 C435.026667,186.277333 434.333334,185.578667 433.832,184.672 C433.330667,183.765333 433.08,182.714667 433.08,181.52 C433.08,180.346667 433.330667,179.306667 433.832,178.4 C434.333334,177.493333 435.026667,176.794667 435.912,176.304 C436.797334,175.813333 437.794667,175.568 438.904,175.568 C439.864,175.568 440.738667,175.770667 441.528,176.176 C442.317334,176.581333 442.978667,177.189333 443.512,178 L443.512,178 L445.848,176.496 C445.186667,175.322667 444.253334,174.426667 443.048,173.808 C441.842667,173.189333 440.472,172.88 438.936,172.88 C437.208,172.88 435.666667,173.248 434.312,173.984 C432.957334,174.72 431.896,175.744 431.128,177.056 C430.36,178.368 429.976,179.856 429.976,181.52 C429.976,183.184 430.36,184.672 431.128,185.984 C431.896,187.296 432.957334,188.325333 434.312,189.072 C435.666667,189.818667 437.208,190.192 438.936,190.192 Z M457.064,190.192 C457.768,190.192 458.450667,190.090667 459.112,189.888 C459.773334,189.685333 460.328,189.392 460.776,189.008 L460.776,189.008 L459.816,186.8 C459.154667,187.333333 458.354667,187.6 457.416,187.6 C456.562667,187.6 455.906667,187.354667 455.448,186.864 C454.989334,186.373333 454.76,185.669333 454.76,184.752 L454.76,184.752 L454.76,175.568 L459.624,175.568 L459.624,173.04 L454.76,173.04 L454.76,169.328 L451.688,169.328 L451.688,173.04 L448.808,173.04 L448.808,175.568 L451.688,175.568 L451.688,184.88 C451.688,186.586667 452.157334,187.898667 453.096,188.816 C454.034667,189.733333 455.357334,190.192 457.064,190.192 Z M472.376,190.192 C474.061334,190.192 475.570667,189.818667 476.904,189.072 C478.237334,188.325333 479.282667,187.296 480.04,185.984 C480.797334,184.672 481.176,183.184 481.176,181.52 C481.176,179.856 480.797334,178.368 480.04,177.056 C479.282667,175.744 478.237334,174.72 476.904,173.984 C475.570667,173.248 474.061334,172.88 472.376,172.88 C470.690667,172.88 469.176,173.248 467.832,173.984 C466.488,174.72 465.437334,175.744 464.68,177.056 C463.922667,178.368 463.544,179.856 463.544,181.52 C463.544,183.184 463.922667,184.672 464.68,185.984 C465.437334,187.296 466.488,188.325333 467.832,189.072 C469.176,189.818667 470.690667,190.192 472.376,190.192 Z M472.376,187.504 C471.288,187.504 470.312,187.253333 469.448,186.752 C468.584,186.250667 467.901334,185.546667 467.4,184.64 C466.898667,183.733333 466.648,182.693333 466.648,181.52 C466.648,180.346667 466.898667,179.306667 467.4,178.4 C467.901334,177.493333 468.584,176.794667 469.448,176.304 C470.312,175.813333 471.288,175.568 472.376,175.568 C473.464,175.568 474.44,175.813333 475.304,176.304 C476.168,176.794667 476.845334,177.493333 477.336,178.4 C477.826667,179.306667 478.072,180.346667 478.072,181.52 C478.072,182.693333 477.826667,183.733333 477.336,184.64 C476.845334,185.546667 476.168,186.250667 475.304,186.752 C474.44,187.253333 473.464,187.504 472.376,187.504 Z M489.704,196.208 L489.704,187.44 C490.408,188.336 491.266667,189.018667 492.28,189.488 C493.293334,189.957333 494.408,190.192 495.624,190.192 C497.266667,190.192 498.738667,189.829333 500.04,189.104 C501.341334,188.378667 502.36,187.36 503.096,186.048 C503.832,184.736 504.2,183.226667 504.2,181.52 C504.2,179.813333 503.832,178.309333 503.096,177.008 C502.36,175.706667 501.341334,174.693333 500.04,173.968 C498.738667,173.242667 497.266667,172.88 495.624,172.88 C494.365334,172.88 493.213334,173.12 492.168,173.6 C491.122667,174.08 490.258667,174.789333 489.576,175.728 L489.576,175.728 L489.576,173.04 L486.632,173.04 L486.632,196.208 L489.704,196.208 Z M495.368,187.504 C494.301334,187.504 493.330667,187.253333 492.456,186.752 C491.581334,186.250667 490.898667,185.546667 490.408,184.64 C489.917334,183.733333 489.672,182.693333 489.672,181.52 C489.672,180.346667 489.922667,179.312 490.424,178.416 C490.925334,177.52 491.608,176.821333 492.472,176.32 C493.336,175.818667 494.301334,175.568 495.368,175.568 C496.456,175.568 497.432,175.813333 498.296,176.304 C499.16,176.794667 499.842667,177.493333 500.344,178.4 C500.845334,179.306667 501.096,180.346667 501.096,181.52 C501.096,182.693333 500.845334,183.733333 500.344,184.64 C499.842667,185.546667 499.16,186.250667 498.296,186.752 C497.432,187.253333 496.456,187.504 495.368,187.504 Z M516.792,190.192 C517.986667,190.192 519.090667,189.952 520.104,189.472 C521.117334,188.992 521.933334,188.314667 522.552,187.44 L522.552,187.44 L522.552,190 L525.464,190 L525.464,173.04 L522.392,173.04 L522.392,181.808 C522.392,183.6 521.922667,184.986667 520.984,185.968 C520.045334,186.949333 518.765334,187.44 517.144,187.44 C515.672,187.44 514.541334,187.018667 513.752,186.176 C512.962667,185.333333 512.568,184.090667 512.568,182.448 L512.568,182.448 L512.568,173.04 L509.496,173.04 L509.496,182.8 C509.496,185.232 510.146667,187.072 511.448,188.32 C512.749334,189.568 514.530667,190.192 516.792,190.192 Z M537.384001,190.192 C539.645334,190.192 541.432001,189.738667 542.744001,188.832 C544.056001,187.925333 544.712001,186.704 544.712001,185.168 C544.712001,184.016 544.413334,183.12 543.816001,182.48 C543.218667,181.84 542.498667,181.386667 541.656001,181.12 C540.813334,180.853333 539.709334,180.602667 538.344001,180.368 C537.320001,180.176 536.525334,180.005333 535.960001,179.856 C535.394667,179.706667 534.920001,179.472 534.536001,179.152 C534.152001,178.832 533.960001,178.394667 533.960001,177.84 C533.960001,177.136 534.301334,176.570667 534.984001,176.144 C535.666667,175.717333 536.658667,175.504 537.960001,175.504 C539.837334,175.504 541.469334,175.952 542.856001,176.848 L542.856001,176.848 L544.168001,174.416 C543.442667,173.946667 542.514667,173.573333 541.384001,173.296 C540.253334,173.018667 539.122667,172.88 537.992001,172.88 C535.837334,172.88 534.120001,173.344 532.840001,174.272 C531.560001,175.2 530.920001,176.432 530.920001,177.968 C530.920001,179.162667 531.229334,180.090667 531.848001,180.752 C532.466667,181.413333 533.208001,181.882667 534.072001,182.16 C534.936001,182.437333 536.050667,182.682667 537.416001,182.896 C538.418667,183.066667 539.192001,183.221333 539.736001,183.36 C540.280001,183.498667 540.733334,183.717333 541.096001,184.016 C541.458667,184.314667 541.640001,184.72 541.640001,185.232 C541.640001,186.768 540.296001,187.536 537.608001,187.536 C536.520001,187.536 535.442667,187.376 534.376001,187.056 C533.309334,186.736 532.402667,186.309333 531.656001,185.776 L531.656001,185.776 L530.376001,188.208 C531.101334,188.784 532.104001,189.258667 533.384001,189.632 C534.664001,190.005333 535.997334,190.192 537.384001,190.192 Z M566.824001,190.192 C568.509334,190.192 570.018667,189.818667 571.352001,189.072 C572.685334,188.325333 573.730667,187.296 574.488001,185.984 C575.245334,184.672 575.624001,183.184 575.624001,181.52 C575.624001,179.856 575.245334,178.368 574.488001,177.056 C573.730667,175.744 572.685334,174.72 571.352001,173.984 C570.018667,173.248 568.509334,172.88 566.824001,172.88 C565.138667,172.88 563.624001,173.248 562.280001,173.984 C560.936001,174.72 559.885334,175.744 559.128001,177.056 C558.370667,178.368 557.992001,179.856 557.992001,181.52 C557.992001,183.184 558.370667,184.672 559.128001,185.984 C559.885334,187.296 560.936001,188.325333 562.280001,189.072 C563.624001,189.818667 565.138667,190.192 566.824001,190.192 Z M566.824001,187.504 C565.736001,187.504 564.760001,187.253333 563.896001,186.752 C563.032001,186.250667 562.349334,185.546667 561.848001,184.64 C561.346667,183.733333 561.096001,182.693333 561.096001,181.52 C561.096001,180.346667 561.346667,179.306667 561.848001,178.4 C562.349334,177.493333 563.032001,176.794667 563.896001,176.304 C564.760001,175.813333 565.736001,175.568 566.824001,175.568 C567.912001,175.568 568.888001,175.813333 569.752001,176.304 C570.616001,176.794667 571.293334,177.493333 571.784001,178.4 C572.274667,179.306667 572.520001,180.346667 572.520001,181.52 C572.520001,182.693333 572.274667,183.733333 571.784001,184.64 C571.293334,185.546667 570.616001,186.250667 569.752001,186.752 C568.888001,187.253333 567.912001,187.504 566.824001,187.504 Z M584.152001,190 L584.152001,181.552 C584.152001,179.717333 584.626667,178.304 585.576001,177.312 C586.525334,176.32 587.832001,175.824 589.496001,175.824 C589.794667,175.824 590.029334,175.834667 590.200001,175.856 L590.200001,175.856 L590.200001,172.88 C588.706667,172.88 587.437334,173.136 586.392001,173.648 C585.346667,174.16 584.557334,174.906667 584.024001,175.888 L584.024001,175.888 L584.024001,173.04 L581.080001,173.04 L581.080001,190 L584.152001,190 Z M608.280001,190 L608.280001,181.264 C608.280001,179.450667 608.738667,178.058667 609.656001,177.088 C610.573334,176.117333 611.810667,175.632 613.368001,175.632 C614.776001,175.632 615.858667,176.048 616.616001,176.88 C617.373334,177.712 617.752001,178.949333 617.752001,180.592 L617.752001,180.592 L617.752001,190 L620.824001,190 L620.824001,181.264 C620.824001,179.450667 621.282667,178.058667 622.200001,177.088 C623.117334,176.117333 624.354667,175.632 625.912001,175.632 C627.320001,175.632 628.402667,176.048 629.160001,176.88 C629.917334,177.712 630.296001,178.949333 630.296001,180.592 L630.296001,180.592 L630.296001,190 L633.368001,190 L633.368001,180.24 C633.368001,177.808 632.744001,175.973333 631.496001,174.736 C630.248001,173.498667 628.557334,172.88 626.424001,172.88 C624.994667,172.88 623.709334,173.157333 622.568001,173.712 C621.426667,174.266667 620.536001,175.034667 619.896001,176.016 C619.341334,174.992 618.552001,174.213333 617.528001,173.68 C616.504001,173.146667 615.330667,172.88 614.008001,172.88 C612.728001,172.88 611.586667,173.109333 610.584001,173.568 C609.581334,174.026667 608.770667,174.693333 608.152001,175.568 L608.152001,175.568 L608.152001,173.04 L605.208001,173.04 L605.208001,190 L608.280001,190 Z M647.592001,190.192 C649.277334,190.192 650.786667,189.818667 652.120001,189.072 C653.453334,188.325333 654.498667,187.296 655.256001,185.984 C656.013334,184.672 656.392001,183.184 656.392001,181.52 C656.392001,179.856 656.013334,178.368 655.256001,177.056 C654.498667,175.744 653.453334,174.72 652.120001,173.984 C650.786667,173.248 649.277334,172.88 647.592001,172.88 C645.906667,172.88 644.392001,173.248 643.048001,173.984 C641.704001,174.72 640.653334,175.744 639.896001,177.056 C639.138667,178.368 638.760001,179.856 638.760001,181.52 C638.760001,183.184 639.138667,184.672 639.896001,185.984 C640.653334,187.296 641.704001,188.325333 643.048001,189.072 C644.392001,189.818667 645.906667,190.192 647.592001,190.192 Z M647.592001,187.504 C646.504001,187.504 645.528001,187.253333 644.664001,186.752 C643.800001,186.250667 643.117334,185.546667 642.616001,184.64 C642.114667,183.733333 641.864001,182.693333 641.864001,181.52 C641.864001,180.346667 642.114667,179.306667 642.616001,178.4 C643.117334,177.493333 643.800001,176.794667 644.664001,176.304 C645.528001,175.813333 646.504001,175.568 647.592001,175.568 C648.680001,175.568 649.656001,175.813333 650.520001,176.304 C651.384001,176.794667 652.061334,177.493333 652.552001,178.4 C653.042667,179.306667 653.288001,180.346667 653.288001,181.52 C653.288001,182.693333 653.042667,183.733333 652.552001,184.64 C652.061334,185.546667 651.384001,186.250667 650.520001,186.752 C649.656001,187.253333 648.680001,187.504 647.592001,187.504 Z M664.920001,190 L664.920001,181.264 C664.920001,179.450667 665.400001,178.058667 666.360001,177.088 C667.320001,176.117333 668.632001,175.632 670.296001,175.632 C671.768001,175.632 672.898668,176.048 673.688001,176.88 C674.477334,177.712 674.872001,178.949333 674.872001,180.592 L674.872001,180.592 L674.872001,190 L677.944001,190 L677.944001,180.24 C677.944001,177.829333 677.309334,176 676.040001,174.752 C674.770668,173.504 673.058668,172.88 670.904001,172.88 C669.560001,172.88 668.360001,173.114667 667.304001,173.584 C666.248001,174.053333 665.410668,174.725333 664.792001,175.6 L664.792001,175.6 L664.792001,173.04 L661.848001,173.04 L661.848001,190 L664.920001,190 Z M692.488001,190.192 C693.896001,190.192 695.170668,189.957333 696.312001,189.488 C697.453334,189.018667 698.408001,188.336 699.176001,187.44 L699.176001,187.44 L697.480001,185.456 C696.242668,186.821333 694.610668,187.504 692.584001,187.504 C690.920001,187.504 689.528001,187.050667 688.408001,186.144 C687.288001,185.237333 686.632001,184.037333 686.440001,182.544 L686.440001,182.544 L700.200001,182.544 C700.242668,182.16 700.264001,181.850667 700.264001,181.616 C700.264001,179.909333 699.906668,178.394667 699.192001,177.072 C698.477334,175.749333 697.485334,174.72 696.216001,173.984 C694.946668,173.248 693.501334,172.88 691.880001,172.88 C690.258668,172.88 688.802668,173.248 687.512001,173.984 C686.221334,174.72 685.208001,175.749333 684.472001,177.072 C683.736001,178.394667 683.368001,179.877333 683.368001,181.52 C683.368001,183.184 683.746668,184.677333 684.504001,186 C685.261334,187.322667 686.333334,188.352 687.720001,189.088 C689.106668,189.824 690.696001,190.192 692.488001,190.192 Z M697.320001,180.336 L686.440001,180.336 C686.610668,178.885333 687.192001,177.712 688.184001,176.816 C689.176001,175.92 690.408001,175.472 691.880001,175.472 C693.352001,175.472 694.584001,175.925333 695.576001,176.832 C696.568001,177.738667 697.149334,178.906667 697.320001,180.336 L697.320001,180.336 Z M706.136001,196.4 C707.501334,196.4 708.669334,196.048 709.640001,195.344 C710.610668,194.64 711.458668,193.424 712.184001,191.696 L712.184001,191.696 L720.408001,173.04 L717.400001,173.04 L711.544001,186.608 L705.624001,173.04 L702.424001,173.04 L709.912001,189.968 L709.368001,191.152 C708.962668,192.112 708.509334,192.789333 708.008001,193.184 C707.506668,193.578667 706.882668,193.776 706.136001,193.776 C704.984001,193.776 703.970668,193.36 703.096001,192.528 L703.096001,192.528 L701.784001,194.832 C702.296001,195.344 702.941334,195.733333 703.720001,196 C704.498668,196.266667 705.304001,196.4 706.136001,196.4 Z M743.288001,190.192 C744.930668,190.192 746.402668,189.829333 747.704001,189.104 C749.005334,188.378667 750.024001,187.36 750.760001,186.048 C751.496001,184.736 751.864001,183.226667 751.864001,181.52 C751.864001,179.813333 751.496001,178.309333 750.760001,177.008 C750.024001,175.706667 749.005334,174.693333 747.704001,173.968 C746.402668,173.242667 744.930668,172.88 743.288001,172.88 C742.072001,172.88 740.952001,173.109333 739.928001,173.568 C738.904001,174.026667 738.050668,174.704 737.368001,175.6 L737.368001,175.6 L737.368001,166.256 L734.296001,166.256 L734.296001,190 L737.240001,190 L737.240001,187.312 C737.922668,188.250667 738.786668,188.965333 739.832001,189.456 C740.877334,189.946667 742.029334,190.192 743.288001,190.192 Z M743.032001,187.504 C741.965334,187.504 740.994668,187.253333 740.120001,186.752 C739.245334,186.250667 738.562668,185.546667 738.072001,184.64 C737.581334,183.733333 737.336001,182.693333 737.336001,181.52 C737.336001,180.346667 737.581334,179.306667 738.072001,178.4 C738.562668,177.493333 739.245334,176.794667 740.120001,176.304 C740.994668,175.813333 741.965334,175.568 743.032001,175.568 C744.120001,175.568 745.096001,175.813333 745.960001,176.304 C746.824001,176.794667 747.506668,177.493333 748.008001,178.4 C748.509334,179.306667 748.760001,180.346667 748.760001,181.52 C748.760001,182.693333 748.509334,183.733333 748.008001,184.64 C747.506668,185.546667 746.824001,186.250667 745.960001,186.752 C745.096001,187.253333 744.120001,187.504 743.032001,187.504 Z M762.120001,190.192 C763.421334,190.192 764.546668,189.984 765.496001,189.568 C766.445334,189.152 767.176001,188.549333 767.688001,187.76 L767.688001,187.76 L767.688001,190 L770.600001,190 L770.600001,179.76 C770.600001,177.477333 769.976001,175.76 768.728001,174.608 C767.480001,173.456 765.682668,172.88 763.336001,172.88 C761.970668,172.88 760.680001,173.066667 759.464001,173.44 C758.248001,173.813333 757.202668,174.352 756.328001,175.056 L756.328001,175.056 L757.608001,177.36 C758.269334,176.805333 759.080001,176.362667 760.040001,176.032 C761.000001,175.701333 761.981334,175.536 762.984001,175.536 C764.477334,175.536 765.608001,175.888 766.376001,176.592 C767.144001,177.296 767.528001,178.309333 767.528001,179.632 L767.528001,179.632 L767.528001,180.24 L762.664001,180.24 C760.296001,180.24 758.568001,180.693333 757.480001,181.6 C756.392001,182.506667 755.848001,183.706667 755.848001,185.2 C755.848001,186.693333 756.418668,187.898667 757.560001,188.816 C758.701334,189.733333 760.221334,190.192 762.120001,190.192 Z M762.632001,187.824 C761.458668,187.824 760.541334,187.578667 759.880001,187.088 C759.218668,186.597333 758.888001,185.925333 758.888001,185.072 C758.888001,183.322667 760.189334,182.448 762.792001,182.448 L762.792001,182.448 L767.528001,182.448 L767.528001,184.816 C767.144001,185.776 766.525334,186.517333 765.672001,187.04 C764.818668,187.562667 763.805334,187.824 762.632001,187.824 Z M784.984001,190.192 C786.520001,190.192 787.890668,189.877333 789.096001,189.248 C790.301334,188.618667 791.234668,187.717333 791.896001,186.544 L791.896001,186.544 L789.560001,185.072 C789.026668,185.882667 788.365334,186.490667 787.576001,186.896 C786.786668,187.301333 785.912001,187.504 784.952001,187.504 C783.842668,187.504 782.845334,187.258667 781.960001,186.768 C781.074668,186.277333 780.381334,185.578667 779.880001,184.672 C779.378668,183.765333 779.128001,182.714667 779.128001,181.52 C779.128001,180.346667 779.378668,179.306667 779.880001,178.4 C780.381334,177.493333 781.074668,176.794667 781.960001,176.304 C782.845334,175.813333 783.842668,175.568 784.952001,175.568 C785.912001,175.568 786.786668,175.770667 787.576001,176.176 C788.365334,176.581333 789.026668,177.189333 789.560001,178 L789.560001,178 L791.896001,176.496 C791.234668,175.322667 790.301334,174.426667 789.096001,173.808 C787.890668,173.189333 786.520001,172.88 784.984001,172.88 C783.256001,172.88 781.714668,173.248 780.360001,173.984 C779.005334,174.72 777.944001,175.744 777.176001,177.056 C776.408001,178.368 776.024001,179.856 776.024001,181.52 C776.024001,183.184 776.408001,184.672 777.176001,185.984 C777.944001,187.296 779.005334,188.325333 780.360001,189.072 C781.714668,189.818667 783.256001,190.192 784.984001,190.192 Z M800.136001,190 L800.136001,185.36 L803.656001,182.096 L810.024001,190 L813.800001,190 L805.960001,180.048 L813.096001,173.04 L809.384001,173.04 L800.136001,181.488 L800.136001,166.256 L797.064001,166.256 L797.064001,190 L800.136001,190 Z"
      id="100%octopusormoneyback"
      fill="#6E6E6E"
      fill-rule="nonzero"
    />
        <g id="Octoboard-Logo" transform="translate(1.000000, 46.000000)">
            <g id="Group-2">
                <g
          id="tentacles"
          transform="translate(107.250000, 141.066987) rotate(60.000000) translate(-107.250000, -141.066987) translate(-5.750000, 83.566987)"
        >
                    <g id="Tentacles-Copy" transform="translate(0.000000, 4.333549)">
                        <path
              d="M46.9966875,5.17616854 L61.751621,13.2701529 C64.5416823,30.8893998 65.4258754,42.4914342 64.4494675,52.8263906 C63.0365733,67.7814101 57.3620594,78.8830027 46.2885627,86.6488642 C33.4681934,95.6398105 19.753379,95.5232356 10.0535565,87.2594064 C1.18475425,79.7035705 -2.20003104,66.8777873 1.95215936,55.4307584 C3.22363891,51.9254607 7.1090711,50.1098673 10.630515,51.3755169 C14.151959,52.6411666 15.9759155,56.5087835 14.704436,60.0140812 C12.4647596,66.1885669 14.2899107,73.1045131 18.8695396,77.0061587 C23.6871597,81.1105627 30.5618918,81.1689974 38.4798414,75.6161262 C52.6700857,65.6644844 54.2270296,49.1847458 47.0223885,7.30556375 C46.8978668,6.58174267 46.8941458,5.86512688 46.9966875,5.17616854 Z"
              id="Combined-Shape"
              fill="#F9C54A"
              fill-rule="nonzero"
            />
                        <path
              d="M77.137689,21.7308709 L92.9296208,30.342074 C97.8484102,58.2035746 92.5273425,81.1143217 77.9221384,95.7516082 C73.14258,100.541666 67.6184611,104.357998 61.5439153,107.099777 C58.1341149,108.638809 54.1165471,107.134925 52.5704263,103.740759 C51.0243055,100.346593 52.5351163,96.3474466 55.9449166,94.808415 C60.5231377,92.7420104 64.6843835,89.8672174 68.3026402,86.2410126 C81.1925315,73.3228068 84.9341233,50.6920332 77.137689,21.7308709 Z M85.9707061,4.73237728 C87.5638213,9.15156896 88.9356838,13.4870517 90.0892089,17.7286896 L72.9519647,8.38454284 C72.2705987,5.14091589 74.0778961,1.81122923 77.3003788,0.660155379 C80.8243164,-0.598598427 84.7061541,1.22459742 85.9707061,4.73237728 Z"
              id="Combined-Shape"
              fill="#BB5C66"
              fill-rule="nonzero"
            />
                        <ellipse
              id="Oval"
              fill="#20C5D8"
              cx="15.2526327"
              cy="37.9693553"
              rx="6.77903714"
              ry="6.74795435"
            />
                    </g>
                    <g
            id="Tentacles-Copy-2"
            transform="translate(174.756893, 57.195021) scale(-1, 1) rotate(4.000000) translate(-174.756893, -57.195021) translate(127.256893, 3.195021)"
          >
                        <path
              d="M46.9966875,5.17616854 L61.751621,13.2701529 C64.5416823,30.8893998 65.4258754,42.4914342 64.4494675,52.8263906 C63.0365733,67.7814101 57.3620594,78.8830027 46.2885627,86.6488642 C33.4681934,95.6398105 19.753379,95.5232356 10.0535565,87.2594064 C1.18475425,79.7035705 -2.20003104,66.8777873 1.95215936,55.4307584 C3.22363891,51.9254607 7.1090711,50.1098673 10.630515,51.3755169 C14.151959,52.6411666 15.9759155,56.5087835 14.704436,60.0140812 C12.4647596,66.1885669 14.2899107,73.1045131 18.8695396,77.0061587 C23.6871597,81.1105627 30.5618918,81.1689974 38.4798414,75.6161262 C52.6700857,65.6644844 54.2270296,49.1847458 47.0223885,7.30556375 C46.8978668,6.58174267 46.8941458,5.86512688 46.9966875,5.17616854 Z"
              id="Combined-Shape"
              fill="#F9C54A"
              fill-rule="nonzero"
            />
                        <path
              d="M77.137689,21.7308709 L92.9296208,30.342074 C97.8484102,58.2035746 92.5273425,81.1143217 77.9221384,95.7516082 C73.14258,100.541666 67.6184611,104.357998 61.5439153,107.099777 C58.1341149,108.638809 54.1165471,107.134925 52.5704263,103.740759 C51.0243055,100.346593 52.5351163,96.3474466 55.9449166,94.808415 C60.5231377,92.7420104 64.6843835,89.8672174 68.3026402,86.2410126 C81.1925315,73.3228068 84.9341233,50.6920332 77.137689,21.7308709 Z M85.9707061,4.73237728 C87.5638213,9.15156896 88.9356838,13.4870517 90.0892089,17.7286896 L72.9519647,8.38454284 C72.2705987,5.14091589 74.0778961,1.81122923 77.3003788,0.660155379 C80.8243164,-0.598598427 84.7061541,1.22459742 85.9707061,4.73237728 Z"
              id="Combined-Shape"
              fill="#BB5C66"
              fill-rule="nonzero"
            />
                        <ellipse
              id="Oval"
              fill="#20C5D8"
              cx="15.2039614"
              cy="37.7885444"
              rx="6.77903714"
              ry="6.74795435"
            />
                    </g>
                </g>
                <g id="body" transform="translate(122.000000, 0.000000)">
                    <polygon
            id="Path-2"
            fill="#FFFFFF"
            points="5.19576623 50.3722392 9.74301984 121.850925 23.8450806 138.060172 65.5412459 157.585489 82.2617603 157.585489 136.467253 128.715605 142.769699 116.980346 142.769699 48.0675541 136.467253 38.6401656 90.7972181 10.8565257 73.9827325 2.69376747 60.3935319 12.9238935 13.5 38.6401656"
          />
                    <path
            d="M76.9953768,143.417075 L76.9953768,78.5162007 C76.9953768,76.9255028 77.9379147,75.4859787 79.395905,74.8499096 L126.278234,54.3968251 C128.303071,53.5134612 130.660633,54.4388078 131.543997,56.4636444 C131.795388,57.0398809 131.907414,57.6672598 131.870986,58.2948895 L128.90615,109.376764 C128.464649,116.983483 123.739303,123.678505 116.719944,126.642571 L76.9953768,143.417075 L76.9953768,143.417075 Z"
            id="Path"
            fill="#F9C54A"
          />
                    <path
            d="M7.38990805,146.901789 L7.38990805,89.8066565 C7.38990805,85.1600342 10.0724677,80.9310493 14.2760324,78.9508619 L57.1611995,58.7488019 C59.1596961,57.8073634 61.5429844,58.6642783 62.4844229,60.6627749 C62.7355858,61.1959463 62.8658247,61.7780323 62.8658247,62.3674001 L62.8658247,113.938915 C62.8658247,121.614405 58.4732026,128.6128 51.5610782,131.949816 L13.1289587,150.503969 C11.1395295,151.46442 8.74817896,150.630269 7.78772778,148.64084 C7.52589634,148.098495 7.38990805,147.504029 7.38990805,146.901789 Z"
            id="Path-Copy"
            fill="#BB5C66"
            transform="translate(35.127866, 104.634581) scale(-1, 1) translate(-35.127866, -104.634581) "
          />
                    <path
            d="M68.4368129,4.05897381 L13.039596,37.1773567 L66.0737362,63.2712851 C70.5434778,65.4704933 75.7825205,65.4623813 80.2454303,63.2493421 L132.823314,37.1773567 L132.823314,37.1773567 L73.1650026,4.05897381 L68.4368129,4.05897381 Z"
            id="Path-11"
            fill="#20C5D8"
          />
                    <path
            d="M78.5636364,143.233173 C78.5636364,145.950067 76.4410591,148.152544 73.8227273,148.152544 C71.2043955,148.152544 69.0818182,145.950067 69.0818182,143.233173 L69.0818182,80.6868824 C69.0818182,77.9699887 71.2043955,75.7675112 73.8227273,75.7675112 C76.4410591,75.7675112 78.5636364,77.9699887 78.5636364,80.6868824 L78.5636364,143.233173 Z"
            id="Line-3"
            fill="#000000"
            fill-rule="nonzero"
          />
                    <path
            d="M118.199909,51.0090745 C120.573611,49.9052619 123.393721,50.9325023 124.498801,53.3034802 C125.603882,55.674458 124.575461,58.4913323 122.20176,59.5951449 L73.1418927,82.40884 L24.2502815,59.5924192 C21.8780871,58.4853789 20.853508,55.6671084 21.96182,53.2976359 C23.070132,50.9281634 25.8916398,49.9047599 28.2638341,51.0118002 L73.1490164,71.9585266 L118.199909,51.0090745 Z"
            id="Path-8"
            fill="#000000"
            fill-rule="nonzero"
          />
                    <ellipse
            id="Oval-2"
            fill="#000000"
            cx="28.4454545"
            cy="27.0598254"
            rx="5.41818182"
            ry="5.41196508"
          />
                    <ellipse
            id="Oval-2-Copy"
            fill="#000000"
            cx="48.0863636"
            cy="39.9132425"
            rx="6.09545455"
            ry="6.08846072"
          />
                    <ellipse
            id="Oval-2-Copy-2"
            fill="#000000"
            cx="72.4681818"
            cy="39.9132425"
            rx="6.09545455"
            ry="6.08846072"
          />
                    <ellipse
            id="Oval-2-Copy-5"
            fill="#000000"
            cx="31.1545455"
            cy="86.5914413"
            rx="6.77272727"
            ry="6.76495636"
          />
                    <ellipse
            id="Oval-2-Copy-6"
            fill="#000000"
            cx="47.4090909"
            cy="115.004258"
            rx="6.77272727"
            ry="6.76495636"
          />
                    <ellipse
            id="Oval-2-Copy-3"
            fill="#000000"
            cx="96.85"
            cy="39.9132425"
            rx="6.09545455"
            ry="6.08846072"
          />
                    <ellipse
            id="Oval-2-Copy-4"
            fill="#000000"
            cx="102.945455"
            cy="101.474345"
            rx="6.77272727"
            ry="6.76495636"
          />
                    <path
            d="M59.197731,17.4040625 C56.6074681,18.9006327 53.2930416,18.0164289 51.7947522,15.4291379 C50.2964628,12.841847 51.1816823,9.5312234 53.7719453,8.03465315 L62.0139797,3.27267195 C69.5664315,-1.09089065 78.8775638,-1.09089065 86.4300156,3.27267195 L135.644542,31.7072354 C143.750928,36.3908433 148.670504,45.1030609 148.489877,54.4554091 L147.426723,109.502667 C147.165374,123.034586 139.43524,135.313192 127.338438,141.411057 L90.7627464,159.848461 C80.358518,165.093119 68.0747772,165.07095 57.6895906,159.788773 L21.4587197,141.360808 C9.5081958,135.28246 1.84669,123.158495 1.49414873,109.767834 L0.00818698918,53.3261888 C-0.219230841,44.6881222 4.3008688,36.6174427 11.7893283,32.2908528 C14.3795912,30.7942826 17.6940178,31.6784864 19.1923071,34.2657773 C20.6905965,36.8530682 19.805377,40.1636919 17.215114,41.6602621 C13.1634056,44.0012083 10.7177589,48.3679329 10.8408057,53.0416482 L12.3267674,109.483294 C12.574852,118.906351 17.966282,127.43803 26.37591,131.715386 L62.6067808,150.143352 C69.9148751,153.860439 78.558989,153.876039 85.8804831,150.185354 L122.456174,131.74795 C130.968739,127.45686 136.408463,118.816359 136.592375,109.293898 L137.655529,54.24664 C137.760103,48.8321226 134.911927,43.7882072 130.218757,41.0766447 L81.0042298,12.6420813 C76.8084233,10.2178798 71.635572,10.2178798 67.4397655,12.6420813 L59.197731,17.4040625 Z"
            id="Polygon"
            fill="#000000"
            fill-rule="nonzero"
          />
                </g>
                <g
          id="bubbles"
          transform="translate(68.000000, 0.000000)"
          fill="#20C5D8"
          fill-rule="nonzero"
        >
                    <path
            d="M15.5,36 C11.3511431,36 8,32.6356635 8,28.5 C8,24.3643365 11.3511431,21 15.5,21 C19.6488569,21 23,24.3643365 23,28.5 C23,32.6356635 19.6488569,36 15.5,36 Z M15.5,33.0472441 C17.9785601,33.0472441 20,31.0178457 20,28.5 C20,25.9821543 17.9785601,23.9527559 15.5,23.9527559 C13.0214399,23.9527559 11,25.9821543 11,28.5 C11,31.0178457 13.0214399,33.0472441 15.5,33.0472441 Z"
            id="Oval-3-Copy"
          />
                    <path
            d="M7.5,15 C3.35114306,15 0,11.6356635 0,7.5 C0,3.36433653 3.35114306,0 7.5,0 C11.6488569,0 15,3.36433653 15,7.5 C15,11.6356635 11.6488569,15 7.5,15 Z M7.5,12 C9.97856005,12 12,9.99168629 12,7.5 C12,5.00831371 9.97856005,3 7.5,3 C5.02143995,3 3,5.00831371 3,7.5 C3,9.99168629 5.02143995,12 7.5,12 Z"
            id="Oval-3-Copy-2"
            opacity="0.445647321"
          />
                </g>
            </g>
        </g>
    </g>
</svg>
