<?xml version="1.0" encoding="UTF-8"?>
<svg width="213px" height="235px" viewBox="0 0 213 235" version="1.1" xmlns="http://www.w3.org/2000/svg" xmlns:xlink="http://www.w3.org/1999/xlink">
    <!-- Generator: Sketch 61.2 (89653) - https://sketch.com -->
    <title>octopus</title>
    <desc>Created with Sketch.</desc>
    <g id="octopus" stroke="none" stroke-width="1" fill="none" fill-rule="evenodd">
        <g id="Group-2" transform="translate(115.673048, 148.820163) rotate(-60.000000) translate(-115.673048, -148.820163) translate(-9.826952, 28.820163)">
            <g id="tentacles" transform="translate(120.549038, 176.752232) rotate(60.000000) translate(-120.549038, -176.752232) translate(77.049038, 125.752232)">
                <g id="Tentacles-Copy-2" transform="translate(43.368442, 51.351415) scale(-1, 1) rotate(4.000000) translate(-43.368442, -51.351415) translate(3.868442, 3.351415)">
                    <path d="M41.2869554,8.56922414 L54.2450874,15.7142373 C56.6954853,31.2687715 57.4720437,41.5111453 56.6145191,50.6349192 C55.373669,63.8371485 50.3901246,73.6375885 40.6650161,80.493259 C29.4057467,88.4304291 17.3609464,88.3275173 8.84224364,81.032243 C1.05337023,74.3619824 -1.91925937,63.039434 1.7273306,52.9340442 C2.8439857,49.8395819 6.25629986,48.2367836 9.34894758,49.3540938 C12.4415953,50.4714041 14.0434538,53.8857204 12.9267987,56.9801826 C10.9598414,62.4309931 12.5627491,68.5363618 16.5847295,71.9807184 C20.8157217,75.6040693 26.8533372,75.6556552 33.8071406,70.7536035 C46.2694792,61.9683352 47.6368385,47.4200901 41.3094861,10.4493215 C41.2001104,9.81023854 41.1968581,9.17751834 41.2869554,8.56922414 Z" id="Combined-Shape" fill="#20C5D8" fill-rule="nonzero"></path>
                    <path d="M63.4884932,19.4728546 L77.3572484,27.0735195 C81.6774257,51.6700374 77.0043415,71.8959634 64.1773791,84.8178934 C59.9798139,89.0465363 55.1283513,92.415579 49.7934856,94.83601 C46.798887,96.1946607 43.270527,94.8670386 41.9126729,91.8706829 C40.5548189,88.8743273 41.8816625,85.343897 44.8762611,83.9852463 C48.8970053,82.1610329 52.551548,79.6231775 55.7292198,76.4219789 C67.0495218,65.0178643 70.3355206,45.0395713 63.4884932,19.4728546 Z M71.2458956,4.46649279 C72.645012,8.36770989 73.8498196,12.1950301 74.8628789,15.9395057 L59.8125974,7.69150915 C59.2136789,4.82776473 60.8009428,1.88782179 63.6313294,0.871552132 C66.7261671,-0.239670521 70.1353245,1.36983923 71.2458956,4.46649279 Z" id="Combined-Shape" fill="#20C5D8" fill-rule="nonzero"></path>
                    <ellipse id="Oval" fill="#36C5F0" cx="13.3654984" cy="37.3595707" rx="5.95357305" ry="5.95706619"></ellipse>
                </g>
            </g>
            <g id="tentacles" transform="translate(66.276970, 77.782378) scale(-1, 1) rotate(-60.000000) translate(-66.276970, -77.782378) translate(22.776970, 26.782378)">
                <g id="Tentacles-Copy-2" transform="translate(43.368442, 51.351415) scale(-1, 1) rotate(4.000000) translate(-43.368442, -51.351415) translate(3.868442, 3.351415)">
                    <path d="M41.2869554,8.56922414 L54.2450874,15.7142373 C56.6954853,31.2687715 57.4720437,41.5111453 56.6145191,50.6349192 C55.373669,63.8371485 50.3901246,73.6375885 40.6650161,80.493259 C29.4057467,88.4304291 17.3609464,88.3275173 8.84224364,81.032243 C1.05337023,74.3619824 -1.91925937,63.039434 1.7273306,52.9340442 C2.8439857,49.8395819 6.25629986,48.2367836 9.34894758,49.3540938 C12.4415953,50.4714041 14.0434538,53.8857204 12.9267987,56.9801826 C10.9598414,62.4309931 12.5627491,68.5363618 16.5847295,71.9807184 C20.8157217,75.6040693 26.8533372,75.6556552 33.8071406,70.7536035 C46.2694792,61.9683352 47.6368385,47.4200901 41.3094861,10.4493215 C41.2001104,9.81023854 41.1968581,9.17751834 41.2869554,8.56922414 Z" id="Combined-Shape" fill="#20C5D8" fill-rule="nonzero"></path>
                    <path d="M63.4884932,19.4728546 L77.3572484,27.0735195 C81.6774257,51.6700374 77.0043415,71.8959634 64.1773791,84.8178934 C59.9798139,89.0465363 55.1283513,92.415579 49.7934856,94.83601 C46.798887,96.1946607 43.270527,94.8670386 41.9126729,91.8706829 C40.5548189,88.8743273 41.8816625,85.343897 44.8762611,83.9852463 C48.8970053,82.1610329 52.551548,79.6231775 55.7292198,76.4219789 C67.0495218,65.0178643 70.3355206,45.0395713 63.4884932,19.4728546 Z M71.2458956,4.46649279 C72.645012,8.36770989 73.8498196,12.1950301 74.8628789,15.9395057 L59.8125974,7.69150915 C59.2136789,4.82776473 60.8009428,1.88782179 63.6313294,0.871552132 C66.7261671,-0.239670521 70.1353245,1.36983923 71.2458956,4.46649279 Z" id="Combined-Shape" fill="#20C5D8" fill-rule="nonzero"></path>
                    <ellipse id="Oval" fill="#36C5F0" cx="13.3654984" cy="37.3595707" rx="5.95357305" ry="5.95706619"></ellipse>
                </g>
            </g>
            <g id="body" transform="translate(108.000000, -0.000000)">
                <path d="M79.6199978,144.613871 C75.2508643,146.350569 69.2223001,145.831485 61.5343051,143.056618 C55.5467021,140.895481 42.1332052,135.049095 21.2938143,125.517457 C9.40918229,120.081596 1.8520945,108.144362 2.02272576,95.0766935 L2.24898881,77.7485063 C2.51858005,57.1020615 13.9849276,38.2325675 32.1862021,28.4825947 L44.5980511,21.833874 C55.1990168,16.1551999 68.0498518,16.6930718 78.1392088,23.2377405 C99.9377762,37.3778292 113.210378,46.705372 117.957015,51.2203689 C123.798986,56.7772465 126.787659,63.0030667 126.923034,69.8978293 L126.923034,69.8978293 L121.426949,108.976125 C120.62662,114.666623 117.417255,119.73793 112.617072,122.89713 L79.6199978,144.613871 Z" id="Path-Copy" fill="#20C5D8" transform="translate(64.471465, 81.769908) scale(-1, 1) translate(-64.471465, -81.769908) "></path>
                <ellipse id="Oval-2" fill="#000000" cx="27.1090909" cy="25.7377049" rx="5.16363636" ry="5.14754098"></ellipse>
                <ellipse id="Oval-2-Copy-5" fill="#000000" cx="29.6909091" cy="82.3606557" rx="6.45454545" ry="6.43442623"></ellipse>
                <ellipse id="Oval-2-Copy-6" fill="#000000" cx="45.1818182" cy="109.385246" rx="6.45454545" ry="6.43442623"></ellipse>
                <path d="M56.4166296,16.5537145 C53.9480568,17.9771635 50.7893416,17.1361612 49.3614417,14.6752831 C47.9335418,12.2144051 48.7771738,9.06553577 51.2457465,7.6420867 L59.1005713,3.11277193 C66.2982099,-1.03759064 75.1719065,-1.03759064 82.369545,3.11277193 L129.27198,30.1580463 C136.997529,34.6128171 141.685983,42.899363 141.513843,51.7947632 L140.500635,104.152458 C140.251565,117.023219 132.884591,128.701902 121.356095,134.501831 L86.4987248,152.038399 C76.5832856,157.026807 64.8766333,157.005721 54.9793414,151.981627 L20.4505919,134.454036 C9.06150204,128.672671 1.75993275,117.141074 1.42395382,104.404669 L0.00780236553,50.7207157 C-0.208931405,42.5046978 4.09881456,34.828345 11.2354672,30.7131487 C13.70404,29.2896996 16.8627552,30.130702 18.2906551,32.59158 C19.718555,35.0524581 18.874923,38.2013274 16.4063503,39.6247764 C12.5449905,41.851346 10.21424,46.0047161 10.3315061,50.4500775 L11.7476575,104.134031 C11.9840871,113.096686 17.1222285,121.211514 25.1367732,125.279882 L59.6655226,142.807473 C66.6302836,146.342946 74.8682982,146.357784 81.8458295,142.847423 L116.7032,125.310855 C124.815845,121.229424 130.000012,113.011091 130.175284,103.953889 L131.188491,51.5961944 C131.288151,46.4462258 128.573783,41.6487519 124.101097,39.0696741 L77.198662,12.0243997 C73.1999739,9.71864272 68.2701425,9.71864272 64.2714544,12.0243997 L56.4166296,16.5537145 Z" id="Polygon" fill="#000000" fill-rule="nonzero"></path>
            </g>
            <g id="bubbles" transform="translate(85.917986, 31.801615) rotate(100.000000) translate(-85.917986, -31.801615) translate(74.417986, 13.801615)" fill="#36C5F0" fill-rule="nonzero">
                <path d="M15.5,35.5 C11.6034638,35.5 8.5,32.1144032 8.5,28 C8.5,23.8855968 11.6034638,20.5 15.5,20.5 C19.3965362,20.5 22.5,23.8855968 22.5,28 C22.5,32.1144032 19.3965362,35.5 15.5,35.5 Z M15.5,32.5 C17.678596,32.5 19.5,30.5130138 19.5,28 C19.5,25.4869862 17.678596,23.5 15.5,23.5 C13.321404,23.5 11.5,25.4869862 11.5,28 C11.5,30.5130138 13.321404,32.5 15.5,32.5 Z" id="Oval-3-Copy"></path>
                <path d="M7.5,15.5 C3.60346378,15.5 0.5,12.1144032 0.5,8 C0.5,3.88559685 3.60346378,0.5 7.5,0.5 C11.3965362,0.5 14.5,3.88559685 14.5,8 C14.5,12.1144032 11.3965362,15.5 7.5,15.5 Z M7.5,12.5 C9.67859602,12.5 11.5,10.5130138 11.5,8 C11.5,5.48698616 9.67859602,3.5 7.5,3.5 C5.32140398,3.5 3.5,5.48698616 3.5,8 C3.5,10.5130138 5.32140398,12.5 7.5,12.5 Z" id="Oval-3-Copy-2" opacity="0.450111607"></path>
            </g>
        </g>
    </g>
</svg>