<svg xmlns="http://www.w3.org/2000/svg" viewBox="0 0 200 200">
  <circle cx="12.585" cy="115.333" r="6.65" />
  <circle cx="187.99" cy="115.333" r="6.65" />
  <path
    d="M100.393,186.684c5.427,0.137 10.894,-1.09 15.847,-3.705l56.35,-33.09c5.084,-2.689 8.284,-7.939 8.318,-13.648c-0.043,-0.307 -0.064,-0.616 -0.064,-0.926c0,-3.673 3.051,-6.695 6.758,-6.695c3.708,0 6.759,3.022 6.759,6.695c0,0.31 -0.021,0.619 -0.065,0.926c0.01,10.563 -5.839,20.319 -15.207,25.365l-56.35,32.961c-7.025,3.8 -14.808,5.605 -22.543,5.446c-7.735,0.159 -15.517,-1.646 -22.542,-5.446l-56.35,-32.961c-9.368,-5.046 -15.217,-14.802 -15.207,-25.365c-0.044,-0.307 -0.065,-0.616 -0.065,-0.926c0,-3.673 3.051,-6.695 6.759,-6.695c3.707,0 6.758,3.022 6.758,6.695c0,0.31 -0.021,0.619 -0.065,0.926c0.035,5.709 3.235,10.959 8.319,13.648l56.35,33.09c4.953,2.615 10.42,3.842 15.847,3.705l0,-0.012l0.196,0.006l0.197,-0.006l0,0.012Z"
  />
  <path
    d="M99.145,62.06c-36.202,0.024 -72.111,3.483 -72.111,10.407c0,6.22 -11.423,-10.28 -16.119,-16.119c0,0 -5.204,-6.473 -3.935,-8.63c0.194,-0.354 0.51,-0.625 0.889,-0.762c0.635,-0.381 0.761,-0.381 2.792,-0.381l2.158,0c0.56,-0.012 1.119,0.074 1.65,0.254c14.596,12.185 30.842,2.792 35.665,-9.265c6.413,-16.29 28.025,-23.927 49.866,-23.55l0.512,-0.008c21.665,-0.25 42.991,7.395 49.354,23.558c4.823,12.057 21.069,21.45 35.665,9.265c0.531,-0.18 1.09,-0.266 1.65,-0.254l2.158,0c2.031,0 2.157,0 2.792,0.381c0.379,0.137 0.695,0.408 0.889,0.762c1.269,2.157 -3.935,8.63 -3.935,8.63c-4.696,5.839 -16.119,22.339 -16.119,16.119c0,-6.979 -36.476,-10.438 -72.966,-10.407l-0.855,0Z"
  />
</svg>
