<svg xmlns="http://www.w3.org/2000/svg" viewBox="0 0 200 200">
  <circle cx="12.585" cy="115.333" r="6.65" />
  <circle cx="187.99" cy="115.333" r="6.65" />
  <path
    d="M100.393,186.684c5.427,0.137 10.894,-1.09 15.847,-3.705l56.35,-33.09c5.084,-2.689 8.284,-7.939 8.318,-13.648c-0.043,-0.307 -0.064,-0.616 -0.064,-0.926c0,-3.673 3.051,-6.695 6.758,-6.695c3.708,0 6.759,3.022 6.759,6.695c0,0.31 -0.021,0.619 -0.065,0.926c0.01,10.563 -5.839,20.319 -15.207,25.365l-56.35,32.961c-7.025,3.8 -14.808,5.605 -22.543,5.446c-7.735,0.159 -15.517,-1.646 -22.542,-5.446l-56.35,-32.961c-9.368,-5.046 -15.217,-14.802 -15.207,-25.365c-0.044,-0.307 -0.065,-0.616 -0.065,-0.926c0,-3.673 3.051,-6.695 6.759,-6.695c3.707,0 6.758,3.022 6.758,6.695c0,0.31 -0.021,0.619 -0.065,0.926c0.035,5.709 3.235,10.959 8.319,13.648l56.35,33.09c4.953,2.615 10.42,3.842 15.847,3.705l0,-0.012l0.196,0.006l0.197,-0.006l0,0.012Z"
  />
  <path
    d="M109.388,24.051c-17.219,-1.165 -21.621,-0.129 -33.791,2.719c-14.242,2.201 -38.193,18.255 -45.702,28.224c-4.273,4.531 -8.804,12.429 -9.063,19.55c-6.085,4.79 0.129,13.723 6.085,5.826c57.225,-25.505 93.864,-18.126 138.272,-15.795c2.46,3.625 8.156,6.214 13.076,3.366c0.691,0.413 1.341,0.889 1.942,1.424c1.554,3.237 0.647,13.982 7.38,12.558c2.037,0.249 3.953,-1.104 4.402,-3.107c9.969,-2.589 -2.849,-15.924 -8.804,-18.514c1.035,-7.379 -7.768,-12.947 -14.889,-9.451c-19.032,-11.911 -27.059,-21.362 -58.908,-26.8Z"
  />
</svg>
