<svg xmlns="http://www.w3.org/2000/svg" viewBox="0 0 200 200">
  <circle cx="12.585" cy="115.333" r="6.65" />
  <circle cx="187.99" cy="115.333" r="6.65" />
  <path
    d="M100.393,186.684c5.427,0.137 10.894,-1.09 15.847,-3.705l56.35,-33.09c5.084,-2.689 8.284,-7.939 8.318,-13.648c-0.043,-0.307 -0.064,-0.616 -0.064,-0.926c0,-3.673 3.051,-6.695 6.758,-6.695c3.708,0 6.759,3.022 6.759,6.695c0,0.31 -0.021,0.619 -0.065,0.926c0.01,10.563 -5.839,20.319 -15.207,25.365l-56.35,32.961c-7.025,3.8 -14.808,5.605 -22.543,5.446c-7.735,0.159 -15.517,-1.646 -22.542,-5.446l-56.35,-32.961c-9.368,-5.046 -15.217,-14.802 -15.207,-25.365c-0.044,-0.307 -0.065,-0.616 -0.065,-0.926c0,-3.673 3.051,-6.695 6.759,-6.695c3.707,0 6.758,3.022 6.758,6.695c0,0.31 -0.021,0.619 -0.065,0.926c0.035,5.709 3.235,10.959 8.319,13.648l56.35,33.09c4.953,2.615 10.42,3.842 15.847,3.705l0,-0.012l0.196,0.006l0.197,-0.006l0,0.012Z"
  />
  <path
    d="M185.526,71.786c0.448,-1.913 0.026,-3.929 -1.151,-5.502c0.249,-0.441 0.38,-0.939 0.38,-1.446c0,-1.126 -0.646,-2.157 -1.659,-2.648c0.383,-3.71 -1.92,-7.805 -3.583,-12.155c0.128,-1.663 0.64,-5.245 -2.559,-6.269c0.896,-1.407 -0.128,-5.118 -3.198,-4.734c-0.32,-0.704 -0.752,-1.353 -1.28,-1.919c0.768,-1.407 -0.256,-5.629 -3.966,-4.35c-4.478,-2.559 -7.932,-11.259 -14.33,-10.619c-0.227,-0.397 -0.532,-0.745 -0.895,-1.024c0.013,-0.129 0.02,-0.259 0.02,-0.388c0,-2.106 -1.733,-3.839 -3.839,-3.839c-0.583,0 -1.159,0.133 -1.683,0.389c-0.639,-3.071 -3.326,-3.455 -6.525,-2.431c-2.172,-3.082 -5.697,-4.94 -9.468,-4.99c-0.383,-1.663 -3.454,-2.687 -5.501,-1.023c-0.521,-1.495 -2.006,-2.45 -3.583,-2.303c-0.884,-1.262 -2.511,-1.787 -3.966,-1.28c-1.279,-3.07 -5.245,-2.687 -9.084,-2.814c-1.151,-0.768 -3.966,-3.071 -6.653,-1.152c-1.091,-0.489 -2.33,-0.535 -3.454,-0.128c-1.664,-1.407 -2.047,-1.535 -5.758,-0.384c-1.547,-0.734 -3.355,-0.687 -4.862,0.128c-1.498,-0.766 -3.349,-0.33 -4.35,1.024c-1.663,-1.024 -5.501,-1.919 -6.141,2.303c-0.7,-0.449 -1.515,-0.688 -2.347,-0.688c-1.571,0 -3.025,0.852 -3.794,2.223c-2.175,-0.896 -5.118,-0.128 -5.118,3.327c-1.791,-0.256 -6.909,1.279 -9.468,3.198c-2.558,1.919 -5.245,-0.512 -6.013,2.687c-4.478,-1.535 -8.828,3.454 -13.05,6.525c-2.175,0.256 -7.293,0 -6.397,4.734c-1.059,0.171 -1.944,0.908 -2.303,1.919c-2.431,-0.64 -5.374,1.919 -4.222,4.606c-1.052,0.867 -1.544,2.246 -1.28,3.582c-1.791,3.199 -6.269,5.758 -6.269,11.004c-1.407,0.127 -2.943,2.558 -2.303,4.989c-1.389,0.781 -1.994,2.485 -1.407,3.967c-0.384,1.535 -1.792,4.733 -0.768,7.42c-0.8,1.521 -0.296,3.424 1.151,4.35c-0.255,4.35 0.384,11.131 3.839,15.098c-0.053,0.226 -0.079,0.458 -0.079,0.691c0,1.474 1.061,2.75 2.51,3.019c-0.437,0.817 -0.666,1.729 -0.666,2.656c0,2.224 1.318,4.249 3.352,5.148c-0.127,2.048 1.536,4.223 3.839,3.583c4.222,3.838 3.454,0.384 7.804,-1.663c2.303,1.919 6.269,-0.128 5.246,-4.606c2.175,-0.256 5.374,1.663 7.421,-1.92c1.336,0.971 3.204,0.806 4.35,-0.383c2.047,1.791 4.094,0.383 5.885,-1.536c1.791,2.303 5.758,1.024 5.758,-1.791c3.07,0.768 6.525,-0.64 10.747,-0.768c0.987,0.848 2.362,1.094 3.582,0.64c0.632,0.751 1.564,1.185 2.545,1.185c1.354,0 2.578,-0.826 3.085,-2.08c2.211,0.09 4.42,-0.213 6.525,-0.896c1.026,1.074 2.654,1.337 3.966,0.64c4.734,3.71 8.7,-1.664 14.841,-1.28c0.608,0.727 1.508,1.148 2.455,1.148c1.609,0 2.98,-1.214 3.175,-2.811c1.663,1.919 5.246,1.152 6.269,-2.175c0.768,0.384 2.559,2.815 5.246,-0.384c2.814,3.199 7.165,0.512 8.956,-2.687c-1.536,4.222 3.966,6.653 6.525,2.175c0.768,2.943 4.478,3.455 7.037,0.512c0.895,0.512 1.279,1.791 3.454,1.919c-0.256,2.559 2.559,7.165 6.141,3.455c1.101,0.69 2.257,1.289 3.455,1.791c0.512,3.838 6.781,5.246 9.084,1.151c2.431,-0.383 7.421,2.559 9.468,-1.791c1.407,0.512 8.828,-11.515 4.861,-14.329Z"
  />
</svg>
