<svg viewBox="0 0 200 200" xmlns="http://www.w3.org/2000/svg">
    <path
    d="M6.097,104.887l0,-39.847c-0.005,-10.696 5.816,-20.601 15.207,-25.88l62.96,-34.892c4.957,-2.877 10.519,-4.298 16.072,-4.268l0.065,0c5.532,-0.019 11.07,1.402 16.008,4.268l62.96,34.892c9.391,5.279 15.212,15.184 15.207,25.88l-0.05,71.928c-0.211,10.282 -6.005,19.708 -15.157,24.638l-56.35,32.961c-7.067,3.822 -14.901,5.626 -22.683,5.443l-0.091,0.002c-7.751,0.167 -15.552,-1.638 -22.591,-5.445l-56.35,-32.961c-9.368,-5.046 -15.217,-14.802 -15.207,-25.365c-0.044,-0.307 -0.065,-30.616 -0.065,-30.926c0,-0.149 0.022,-0.291 0.065,-0.428Zm13.451,2.25c-0.006,6.6 -0.026,28.841 -0.064,29.104c0.035,5.709 3.235,10.959 8.319,13.648l56.35,33.09c5.055,2.669 10.646,3.892 16.183,3.695l0.065,0.002c5.516,0.185 11.083,-1.039 16.119,-3.697l56.35,-33.09c4.851,-2.566 7.987,-7.463 8.26,-12.869l-0.071,-71.98c0.026,-5.927 -3.151,-11.435 -8.319,-14.421l-62.96,-34.892c-2.92,-1.659 -6.187,-2.47 -9.444,-2.436l-0.076,-0.001c-3.232,-0.021 -6.469,0.791 -9.367,2.437l-62.96,34.892c-5.168,2.986 -8.345,8.494 -8.319,14.421l0,41.716c-0.005,0.132 -0.027,0.259 -0.066,0.381Z"
  />
</svg>
