<svg xmlns="http://www.w3.org/2000/svg" viewBox="0 0 200 200">
    <path
    d="M99.768,192.507c-2.399,-0.258 -4.773,-0.858 -7.047,-1.803l-46.995,-18.927c-7.725,-4.635 -17.644,-13.924 -15.064,-22.017c2.95,-9.256 2.935,-30.661 -4.666,-62.446c-2.146,-16.994 5.966,-30.159 19.086,-38.369l15.451,-9.527c12.034,-7.487 25.764,-11.16 39.467,-10.978l0.321,-0.003c13.596,-0.121 27.206,3.552 39.146,10.981l15.451,9.527c13.12,8.21 21.232,21.375 19.086,38.369c-7.601,31.785 -7.616,53.19 -4.666,62.446c2.58,8.093 -7.339,17.382 -15.064,22.017l-46.995,18.927c-2.347,0.975 -4.801,1.583 -7.279,1.827l-0.232,-0.024Z"
  />
</svg>
