<svg xmlns="http://www.w3.org/2000/svg" viewBox="0 0 200 200">
  <path
    d="M71.414,94.587l-0.7,0.2c-0.328,0.153 -0.605,0.395 -0.8,0.7c-0.1,0.1 -0.1,0.2 -0.2,0.2c-0.541,0.425 -1.013,0.931 -1.4,1.5l-3.2,3.6c-2.1,-1.3 -4.4,-2.2 -6.6,-3.3c-0.204,-0.094 -0.425,-0.143 -0.65,-0.143c-0.847,0 -1.543,0.696 -1.543,1.543c0,0.6 0.349,1.147 0.893,1.4c2.013,0.832 3.983,1.766 5.9,2.8c-1.894,2.043 -3.601,4.252 -5.1,6.6c-2.2,-1.3 -4.8,-2 -7.2,-1c-0.777,0.322 -1.174,1.205 -0.9,2c0.199,0.555 0.728,0.927 1.318,0.927c0.201,0 0.399,-0.043 0.582,-0.127l0.6,-0.2l2.6,0c0.467,0.116 0.909,0.319 1.3,0.6l0.1,0c-1.306,2.295 -2.475,4.666 -3.5,7.1c-1.8,-1 -3.8,-1.6 -5.7,-0.8c-0.763,0.28 -1.167,1.132 -0.9,1.9c0.322,0.777 1.205,1.174 2,0.9l1.7,0c0,0.055 0.045,0.1 0.1,0.1c0.1,0 0.1,0 -0.1,-0.1l0.8,0.3l0.6,0.4l0.3,0c-0.9,2.1 -1.8,4.2 -2.6,6.4c-0.8,2.2 2,3 2.7,1.2l2.4,-5.9l3.4,3.1c0.246,0.163 0.534,0.249 0.828,0.249c0.823,0 1.5,-0.677 1.5,-1.5c0,-0.392 -0.154,-0.769 -0.428,-1.049l-4.1,-3.3c1,-2.3 2.2,-4.6 3.4,-6.9l0.7,0.6l0.7,0.7c0.262,0.371 0.689,0.593 1.144,0.593c0.31,0 0.611,-0.103 0.856,-0.293c0.647,-0.493 0.82,-1.404 0.4,-2.1c-0.682,-0.783 -1.417,-1.518 -2.2,-2.2l0.2,-0.3c1.498,-2.26 3.17,-4.399 5,-6.4l1,1l0.5,0.6l0.2,0.3l0,0.2c0,0.1 0.1,0.2 0.1,0.3c0,0.1 0.1,0.5 0,0.2c0.15,0.8 0.888,1.365 1.7,1.3c0.735,-0.045 1.315,-0.661 1.315,-1.397c0,-0.068 -0.005,-0.136 -0.015,-0.203c-0.385,-1.751 -1.377,-3.31 -2.8,-4.4l3.5,-4c0.256,-0.313 0.559,-0.583 0.9,-0.8c0.4,-0.3 0.8,-0.5 0.9,-1c0.084,-0.191 0.128,-0.397 0.128,-0.605c0,-0.823 -0.677,-1.5 -1.5,-1.5c-0.043,0 -0.086,0.001 -0.128,0.005Z"
    style="mix-blend-mode: overlay"
  />
</svg>
