<svg xmlns="http://www.w3.org/2000/svg" viewBox="0 0 200 200">
  <path
    d="M88.212,81.515c-1.056,-1.995 -4.107,-0.235 -3.051,1.877c1.168,2.304 2.149,4.697 2.934,7.158c0.519,1.793 0.795,3.648 0.821,5.514c-2.466,-1.263 -5.014,-2.361 -7.627,-3.285c-1.408,-0.469 -2.347,1.056 -2.112,2.229c0.822,4.694 3.403,8.918 6.102,12.79c1.29,1.877 4.341,0.117 3.05,-1.76c-2.003,-2.675 -3.659,-5.592 -4.928,-8.683c2.004,0.748 3.93,1.691 5.75,2.816c0.873,0.447 1.958,0.137 2.464,-0.704c1.408,-2.816 0.821,-6.219 0,-9.152c-0.837,-3.04 -1.977,-5.988 -3.403,-8.8Z"
    style="mix-blend-mode: overlay"
  />
</svg>
