<svg xmlns="http://www.w3.org/2000/svg" viewBox="0 0 200 200">
  <path
    d="M140.504,99.645c-1.591,0.183 -3.171,-0.449 -4.197,-1.679c-3.497,-2.518 -5.036,-5.036 -4.616,-6.575c0.255,-0.681 0.96,-1.092 1.678,-0.979c1.932,0.173 3.611,1.419 4.337,3.218c0.813,0.882 1.896,1.473 3.078,1.678c0.763,-0.03 1.477,-0.387 1.959,-0.979l0.419,-0.42c0.536,-0.599 1.295,-0.954 2.099,-0.979l1.119,0.28l0.14,0c0.606,1.149 0.553,2.538 -0.14,3.637c-1.119,1.819 -3.777,2.658 -5.876,2.658l0,0.14Z"
    fill="#d60303"
  />
  <path
    d="M140.504,99.645c-1.591,0.183 -3.171,-0.449 -4.197,-1.679c-3.497,-2.518 -5.036,-5.036 -4.616,-6.575c0.255,-0.681 0.96,-1.092 1.678,-0.979c1.932,0.173 3.611,1.419 4.337,3.218c0.813,0.882 1.896,1.473 3.078,1.678c0.763,-0.03 1.477,-0.387 1.959,-0.979l0.419,-0.42c0.536,-0.599 1.295,-0.954 2.099,-0.979l1.119,0.28l0.14,0c0.606,1.149 0.553,2.538 -0.14,3.637c-1.119,1.819 -3.777,2.658 -5.876,2.658l0,0.14Zm2.977,-4.641c-0.661,0.789 -1.627,1.263 -2.658,1.304c-0.07,0.002 -0.141,-0.002 -0.21,-0.015c-1.4,-0.243 -2.68,-0.941 -3.642,-1.986c-0.082,-0.089 -0.147,-0.191 -0.192,-0.303c-0.586,-1.451 -1.94,-2.456 -3.499,-2.596c-0.022,-0.002 -0.044,-0.005 -0.065,-0.008c-0.238,-0.037 -0.471,0.089 -0.572,0.304c-0.089,0.41 0.068,0.906 0.368,1.473c0.636,1.201 1.941,2.581 3.881,3.978c0.068,0.049 0.13,0.106 0.183,0.171c0.715,0.856 1.769,1.346 2.87,1.35c0.16,-0.108 0.352,-0.171 0.559,-0.171c1.783,0 4.074,-0.637 5.03,-2.191c0.42,-0.666 0.516,-1.48 0.279,-2.215l-0.644,-0.161c-0.484,0.046 -0.935,0.273 -1.261,0.637l-0.427,0.429Z"
    fill="#6a1414"
  />
  <path
    d="M152.675,111.676c-1.496,-0.022 -2.897,-0.748 -3.777,-1.958c-3.217,-1.959 -3.777,-3.917 -3.637,-5.456c0.399,-2.438 1.968,-4.531 4.197,-5.596l1.958,-0.42c1.259,0 1.539,0.84 1.539,1.259c0,0.42 -1.958,4.057 -3.357,4.757c1.017,1.223 2.194,2.305 3.497,3.217l0.56,0.56c0.616,0.846 0.822,1.925 0.559,2.938c-0.38,0.453 -0.947,0.711 -1.539,0.699Z"
    fill="#d60303"
  />
  <path
    d="M152.675,111.676c-1.496,-0.022 -2.897,-0.748 -3.777,-1.958c-3.217,-1.959 -3.777,-3.917 -3.637,-5.456c0.399,-2.438 1.968,-4.531 4.197,-5.596l1.958,-0.42c1.259,0 1.539,0.84 1.539,1.259c0,0.42 -1.958,4.057 -3.357,4.757c1.017,1.223 2.194,2.305 3.497,3.217l0.56,0.56c0.616,0.846 0.822,1.925 0.559,2.938c-0.38,0.453 -0.947,0.711 -1.539,0.699Zm-1.167,-12.427l-1.721,0.369c-1.868,0.933 -3.183,2.706 -3.533,4.766c-0.105,1.287 0.483,2.848 3.164,4.48c0.113,0.068 0.211,0.159 0.289,0.266c0.695,0.955 1.802,1.529 2.983,1.546l0.005,0.001c0.219,0.004 0.431,-0.067 0.602,-0.198c0.096,-0.625 -0.049,-1.268 -0.409,-1.793l-0.441,-0.441c-1.347,-0.951 -2.563,-2.076 -3.618,-3.344c-0.195,-0.234 -0.273,-0.545 -0.21,-0.844c0.063,-0.299 0.258,-0.553 0.531,-0.69c0.4,-0.2 0.83,-0.73 1.252,-1.306c0.704,-0.963 1.329,-2.101 1.536,-2.627c-0.045,-0.09 -0.181,-0.169 -0.43,-0.185Z"
    fill="#6a1414"
  />
  <path
    d="M147.919,117.272c-1.959,0 -5.596,-2.798 -6.296,-3.357l-0.699,-0.28c-0.839,0 -1.399,0.699 -1.959,1.399c-0.379,0.677 -1.051,1.142 -1.818,1.259c-0.817,0.034 -1.6,-0.332 -2.099,-0.979c-0.349,-0.705 -0.349,-1.534 0,-2.239c1.539,-2.378 3.358,-3.637 5.456,-3.637c2.099,0 6.016,2.378 8.114,4.057l0.28,0c0.42,1.399 0.56,2.378 0.14,2.938c-0.224,0.396 -0.668,0.618 -1.119,0.559l0,0.28Z"
    fill="#d60303"
  />
  <path
    d="M147.919,117.272c-1.959,0 -5.596,-2.798 -6.296,-3.357l-0.699,-0.28c-0.839,0 -1.399,0.699 -1.959,1.399c-0.379,0.677 -1.051,1.142 -1.818,1.259c-0.817,0.034 -1.6,-0.332 -2.099,-0.979c-0.349,-0.705 -0.349,-1.534 0,-2.239c1.539,-2.378 3.358,-3.637 5.456,-3.637c2.099,0 6.016,2.378 8.114,4.057l0.28,0c0.42,1.399 0.56,2.378 0.14,2.938c-0.224,0.396 -0.668,0.618 -1.119,0.559l0,0.28Zm0.181,-2.922c-0.037,-0.022 -0.072,-0.047 -0.106,-0.074c-1.21,-0.968 -3.048,-2.177 -4.76,-2.99c-1.031,-0.489 -2.002,-0.848 -2.73,-0.848c-1.778,0 -3.274,1.127 -4.58,3.126c-0.177,0.385 -0.183,0.826 -0.021,1.216c0.29,0.329 0.709,0.517 1.148,0.514c0.44,-0.082 0.822,-0.357 1.042,-0.749c0.027,-0.048 0.057,-0.093 0.092,-0.136c0.758,-0.948 1.601,-1.774 2.739,-1.774c0.127,0 0.253,0.024 0.371,0.071l0.7,0.28c0.091,0.037 0.176,0.086 0.253,0.148c0.403,0.322 1.821,1.419 3.298,2.245c0.619,0.345 1.241,0.658 1.785,0.805c0.206,-0.15 0.462,-0.216 0.717,-0.183c0.048,0.006 0.095,-0.018 0.119,-0.06c0.021,-0.037 0.045,-0.074 0.071,-0.108c0.086,-0.115 0.062,-0.282 0.047,-0.483c-0.02,-0.291 -0.086,-0.624 -0.185,-1Z"
    fill="#6a1414"
  />
  <path
    d="M130.851,111.257c-0.818,0.039 -1.567,-0.479 -1.818,-1.259c-0.28,-1.12 0.279,-3.218 3.357,-5.317c-3.637,-2.238 -4.616,-5.735 -4.057,-7.414c0.56,-1.679 0.7,-1.259 1.399,-1.259c0.7,0 2.099,1.119 3.218,3.078c1.119,1.958 3.917,4.057 3.777,5.875c-1.959,4.897 -4.337,6.575 -5.876,6.575l0,-0.279Z"
    fill="#d60303"
  />
  <path
    d="M130.851,111.257c-0.818,0.039 -1.567,-0.479 -1.818,-1.259c-0.28,-1.12 0.279,-3.218 3.357,-5.317c-3.637,-2.238 -4.616,-5.735 -4.057,-7.414c0.56,-1.679 0.7,-1.259 1.399,-1.259c0.7,0 2.099,1.119 3.218,3.078c1.119,1.958 3.917,4.057 3.777,5.875c-1.959,4.897 -4.337,6.575 -5.876,6.575l0,-0.279Zm-1.344,-14.26c-0.066,0.152 -0.151,0.363 -0.225,0.586c-0.172,0.517 -0.12,1.255 0.142,2.068c0.453,1.406 1.554,2.987 3.49,4.179c0.289,0.177 0.468,0.489 0.476,0.828c0.008,0.339 -0.156,0.659 -0.436,0.85c-1.364,0.929 -2.184,1.845 -2.617,2.666c-0.33,0.624 -0.426,1.161 -0.342,1.547c0.122,0.334 0.45,0.554 0.808,0.537c0.218,-0.011 0.431,0.05 0.609,0.171c0.305,-0.109 0.637,-0.303 0.988,-0.581c1.091,-0.863 2.264,-2.476 3.332,-5.093c-0.023,-0.481 -0.365,-0.965 -0.754,-1.486c-0.906,-1.217 -2.207,-2.481 -2.896,-3.687c-0.593,-1.037 -1.265,-1.813 -1.848,-2.263c-0.196,-0.151 -0.501,-0.297 -0.533,-0.312l-0.194,-0.01Z"
    fill="#6a1414"
  />
</svg>
